<svg xmlns="http://www.w3.org/2000/svg" xmlns:xlink="http://www.w3.org/1999/xlink" width="794" zoomAndPan="magnify" viewBox="0 0 595.5 280.499991" height="374" preserveAspectRatio="xMidYMid meet" version="1.0"><defs><g/><clipPath id="5569081a04"><path d="M 0.28125 0 L 594.71875 0 L 594.71875 280 L 0.28125 280 Z M 0.28125 0 " clip-rule="nonzero"/></clipPath><clipPath id="bd44f49591"><path d="M 0.28125 0 L 594.445312 0 L 594.445312 279.871094 L 0.28125 279.871094 Z M 0.28125 0 " clip-rule="nonzero"/></clipPath><clipPath id="63a2bfc1fe"><path d="M 1 0.636719 L 329 0.636719 L 329 273.367188 L 1 273.367188 Z M 1 0.636719 " clip-rule="nonzero"/></clipPath><clipPath id="1cc986c7e5"><path d="M 318.835938 151.871094 L 36.5 271.316406 C 28.6875 274.621094 19.742188 273.789062 12.671875 269.105469 C 5.601562 264.417969 1.351562 256.503906 1.351562 248.023438 L 1.351562 25.980469 C 1.351562 17.5 5.601562 9.582031 12.671875 4.898438 C 19.742188 0.214844 28.6875 -0.617188 36.5 2.6875 L 318.835938 122.132812 C 324.808594 124.660156 328.691406 130.515625 328.691406 137 C 328.691406 143.488281 324.808594 149.34375 318.835938 151.871094 Z M 318.835938 151.871094 " clip-rule="nonzero"/></clipPath><clipPath id="efe16054eb"><path d="M 0.359375 0.6875 L 327.699219 0.6875 L 327.699219 273.316406 L 0.359375 273.316406 Z M 0.359375 0.6875 " clip-rule="nonzero"/></clipPath><clipPath id="5ffbfe990e"><path d="M 317.835938 151.871094 L 35.5 271.316406 C 27.6875 274.621094 18.742188 273.789062 11.671875 269.105469 C 4.601562 264.417969 0.351562 256.503906 0.351562 248.023438 L 0.351562 25.980469 C 0.351562 17.5 4.601562 9.582031 11.671875 4.898438 C 18.742188 0.214844 27.6875 -0.617188 35.5 2.6875 L 317.835938 122.132812 C 323.808594 124.660156 327.691406 130.515625 327.691406 137 C 327.691406 143.488281 323.808594 149.34375 317.835938 151.871094 Z M 317.835938 151.871094 " clip-rule="nonzero"/></clipPath><linearGradient x1="11.043" gradientTransform="matrix(0, 1.165502, -1.165502, 0, 352.991419, -12.182485)" y1="162.130005" x2="244.957" gradientUnits="userSpaceOnUse" y2="162.130005" id="6939132ac7"><stop stop-opacity="1" stop-color="rgb(88.62915%, 4.309082%, 54.899597%)" offset="0"/><stop stop-opacity="1" stop-color="rgb(88.66272%, 4.406738%, 54.684448%)" offset="0.00390625"/><stop stop-opacity="1" stop-color="rgb(88.696289%, 4.50592%, 54.470825%)" offset="0.0078125"/><stop stop-opacity="1" stop-color="rgb(88.729858%, 4.603577%, 54.255676%)" offset="0.0117188"/><stop stop-opacity="1" stop-color="rgb(88.763428%, 4.701233%, 54.042053%)" offset="0.015625"/><stop stop-opacity="1" stop-color="rgb(88.796997%, 4.798889%, 53.826904%)" offset="0.0195312"/><stop stop-opacity="1" stop-color="rgb(88.830566%, 4.898071%, 53.611755%)" offset="0.0234375"/><stop stop-opacity="1" stop-color="rgb(88.864136%, 4.995728%, 53.396606%)" offset="0.0273438"/><stop stop-opacity="1" stop-color="rgb(88.899231%, 5.093384%, 53.182983%)" offset="0.03125"/><stop stop-opacity="1" stop-color="rgb(88.9328%, 5.19104%, 52.967834%)" offset="0.0351562"/><stop stop-opacity="1" stop-color="rgb(88.96637%, 5.290222%, 52.754211%)" offset="0.0390625"/><stop stop-opacity="1" stop-color="rgb(88.999939%, 5.387878%, 52.539062%)" offset="0.0429688"/><stop stop-opacity="1" stop-color="rgb(89.033508%, 5.485535%, 52.325439%)" offset="0.046875"/><stop stop-opacity="1" stop-color="rgb(89.067078%, 5.583191%, 52.110291%)" offset="0.0507812"/><stop stop-opacity="1" stop-color="rgb(89.100647%, 5.682373%, 51.896667%)" offset="0.0546875"/><stop stop-opacity="1" stop-color="rgb(89.134216%, 5.780029%, 51.681519%)" offset="0.0585938"/><stop stop-opacity="1" stop-color="rgb(89.167786%, 5.877686%, 51.467896%)" offset="0.0625"/><stop stop-opacity="1" stop-color="rgb(89.201355%, 5.975342%, 51.252747%)" offset="0.0664062"/><stop stop-opacity="1" stop-color="rgb(89.234924%, 6.074524%, 51.039124%)" offset="0.0703125"/><stop stop-opacity="1" stop-color="rgb(89.268494%, 6.17218%, 50.823975%)" offset="0.0742188"/><stop stop-opacity="1" stop-color="rgb(89.302063%, 6.269836%, 50.610352%)" offset="0.078125"/><stop stop-opacity="1" stop-color="rgb(89.335632%, 6.367493%, 50.395203%)" offset="0.0820312"/><stop stop-opacity="1" stop-color="rgb(89.370728%, 6.466675%, 50.18158%)" offset="0.0859375"/><stop stop-opacity="1" stop-color="rgb(89.404297%, 6.564331%, 49.966431%)" offset="0.0898438"/><stop stop-opacity="1" stop-color="rgb(89.437866%, 6.661987%, 49.752808%)" offset="0.09375"/><stop stop-opacity="1" stop-color="rgb(89.471436%, 6.759644%, 49.537659%)" offset="0.0976562"/><stop stop-opacity="1" stop-color="rgb(89.505005%, 6.858826%, 49.324036%)" offset="0.101562"/><stop stop-opacity="1" stop-color="rgb(89.538574%, 6.956482%, 49.108887%)" offset="0.105469"/><stop stop-opacity="1" stop-color="rgb(89.572144%, 7.054138%, 48.895264%)" offset="0.109375"/><stop stop-opacity="1" stop-color="rgb(89.605713%, 7.151794%, 48.680115%)" offset="0.113281"/><stop stop-opacity="1" stop-color="rgb(89.639282%, 7.250977%, 48.464966%)" offset="0.117188"/><stop stop-opacity="1" stop-color="rgb(89.672852%, 7.348633%, 48.249817%)" offset="0.121094"/><stop stop-opacity="1" stop-color="rgb(89.706421%, 7.446289%, 48.036194%)" offset="0.125"/><stop stop-opacity="1" stop-color="rgb(89.73999%, 7.543945%, 47.821045%)" offset="0.128906"/><stop stop-opacity="1" stop-color="rgb(89.77356%, 7.643127%, 47.607422%)" offset="0.132812"/><stop stop-opacity="1" stop-color="rgb(89.807129%, 7.740784%, 47.392273%)" offset="0.136719"/><stop stop-opacity="1" stop-color="rgb(89.840698%, 7.83844%, 47.17865%)" offset="0.140625"/><stop stop-opacity="1" stop-color="rgb(89.874268%, 7.936096%, 46.963501%)" offset="0.144531"/><stop stop-opacity="1" stop-color="rgb(89.909363%, 8.035278%, 46.749878%)" offset="0.148438"/><stop stop-opacity="1" stop-color="rgb(89.942932%, 8.132935%, 46.534729%)" offset="0.152344"/><stop stop-opacity="1" stop-color="rgb(89.976501%, 8.230591%, 46.321106%)" offset="0.15625"/><stop stop-opacity="1" stop-color="rgb(90.010071%, 8.328247%, 46.105957%)" offset="0.160156"/><stop stop-opacity="1" stop-color="rgb(90.04364%, 8.427429%, 45.892334%)" offset="0.164062"/><stop stop-opacity="1" stop-color="rgb(90.077209%, 8.525085%, 45.677185%)" offset="0.167969"/><stop stop-opacity="1" stop-color="rgb(90.110779%, 8.622742%, 45.463562%)" offset="0.171875"/><stop stop-opacity="1" stop-color="rgb(90.144348%, 8.720398%, 45.248413%)" offset="0.175781"/><stop stop-opacity="1" stop-color="rgb(90.177917%, 8.81958%, 45.03479%)" offset="0.179688"/><stop stop-opacity="1" stop-color="rgb(90.211487%, 8.917236%, 44.819641%)" offset="0.183594"/><stop stop-opacity="1" stop-color="rgb(90.245056%, 9.014893%, 44.606018%)" offset="0.1875"/><stop stop-opacity="1" stop-color="rgb(90.278625%, 9.112549%, 44.390869%)" offset="0.191406"/><stop stop-opacity="1" stop-color="rgb(90.312195%, 9.211731%, 44.177246%)" offset="0.195312"/><stop stop-opacity="1" stop-color="rgb(90.345764%, 9.309387%, 43.962097%)" offset="0.199219"/><stop stop-opacity="1" stop-color="rgb(90.380859%, 9.407043%, 43.746948%)" offset="0.203125"/><stop stop-opacity="1" stop-color="rgb(90.414429%, 9.5047%, 43.531799%)" offset="0.207031"/><stop stop-opacity="1" stop-color="rgb(90.447998%, 9.603882%, 43.318176%)" offset="0.210938"/><stop stop-opacity="1" stop-color="rgb(90.481567%, 9.701538%, 43.103027%)" offset="0.214844"/><stop stop-opacity="1" stop-color="rgb(90.515137%, 9.799194%, 42.889404%)" offset="0.21875"/><stop stop-opacity="1" stop-color="rgb(90.548706%, 9.896851%, 42.674255%)" offset="0.222656"/><stop stop-opacity="1" stop-color="rgb(90.582275%, 9.996033%, 42.460632%)" offset="0.226562"/><stop stop-opacity="1" stop-color="rgb(90.615845%, 10.093689%, 42.245483%)" offset="0.230469"/><stop stop-opacity="1" stop-color="rgb(90.649414%, 10.191345%, 42.03186%)" offset="0.234375"/><stop stop-opacity="1" stop-color="rgb(90.682983%, 10.289001%, 41.816711%)" offset="0.238281"/><stop stop-opacity="1" stop-color="rgb(90.716553%, 10.388184%, 41.603088%)" offset="0.242188"/><stop stop-opacity="1" stop-color="rgb(90.750122%, 10.48584%, 41.387939%)" offset="0.246094"/><stop stop-opacity="1" stop-color="rgb(90.783691%, 10.583496%, 41.174316%)" offset="0.25"/><stop stop-opacity="1" stop-color="rgb(90.817261%, 10.681152%, 40.959167%)" offset="0.253906"/><stop stop-opacity="1" stop-color="rgb(90.85083%, 10.780334%, 40.745544%)" offset="0.257812"/><stop stop-opacity="1" stop-color="rgb(90.884399%, 10.877991%, 40.530396%)" offset="0.261719"/><stop stop-opacity="1" stop-color="rgb(90.919495%, 10.977173%, 40.316772%)" offset="0.265625"/><stop stop-opacity="1" stop-color="rgb(90.953064%, 11.074829%, 40.101624%)" offset="0.269531"/><stop stop-opacity="1" stop-color="rgb(90.986633%, 11.172485%, 39.888%)" offset="0.273438"/><stop stop-opacity="1" stop-color="rgb(91.020203%, 11.270142%, 39.672852%)" offset="0.277344"/><stop stop-opacity="1" stop-color="rgb(91.053772%, 11.369324%, 39.459229%)" offset="0.28125"/><stop stop-opacity="1" stop-color="rgb(91.087341%, 11.46698%, 39.24408%)" offset="0.285156"/><stop stop-opacity="1" stop-color="rgb(91.120911%, 11.564636%, 39.030457%)" offset="0.289062"/><stop stop-opacity="1" stop-color="rgb(91.15448%, 11.662292%, 38.815308%)" offset="0.292969"/><stop stop-opacity="1" stop-color="rgb(91.188049%, 11.761475%, 38.600159%)" offset="0.296875"/><stop stop-opacity="1" stop-color="rgb(91.221619%, 11.859131%, 38.38501%)" offset="0.300781"/><stop stop-opacity="1" stop-color="rgb(91.255188%, 11.956787%, 38.171387%)" offset="0.304688"/><stop stop-opacity="1" stop-color="rgb(91.288757%, 12.054443%, 37.956238%)" offset="0.308594"/><stop stop-opacity="1" stop-color="rgb(91.322327%, 12.153625%, 37.742615%)" offset="0.3125"/><stop stop-opacity="1" stop-color="rgb(91.355896%, 12.251282%, 37.527466%)" offset="0.316406"/><stop stop-opacity="1" stop-color="rgb(91.390991%, 12.348938%, 37.313843%)" offset="0.320312"/><stop stop-opacity="1" stop-color="rgb(91.424561%, 12.446594%, 37.098694%)" offset="0.324219"/><stop stop-opacity="1" stop-color="rgb(91.45813%, 12.545776%, 36.885071%)" offset="0.328125"/><stop stop-opacity="1" stop-color="rgb(91.491699%, 12.643433%, 36.669922%)" offset="0.332031"/><stop stop-opacity="1" stop-color="rgb(91.525269%, 12.741089%, 36.456299%)" offset="0.335938"/><stop stop-opacity="1" stop-color="rgb(91.558838%, 12.838745%, 36.24115%)" offset="0.339844"/><stop stop-opacity="1" stop-color="rgb(91.592407%, 12.937927%, 36.027527%)" offset="0.34375"/><stop stop-opacity="1" stop-color="rgb(91.625977%, 13.035583%, 35.812378%)" offset="0.347656"/><stop stop-opacity="1" stop-color="rgb(91.659546%, 13.13324%, 35.598755%)" offset="0.351562"/><stop stop-opacity="1" stop-color="rgb(91.693115%, 13.230896%, 35.383606%)" offset="0.355469"/><stop stop-opacity="1" stop-color="rgb(91.726685%, 13.330078%, 35.169983%)" offset="0.359375"/><stop stop-opacity="1" stop-color="rgb(91.760254%, 13.427734%, 34.954834%)" offset="0.363281"/><stop stop-opacity="1" stop-color="rgb(91.793823%, 13.525391%, 34.741211%)" offset="0.367188"/><stop stop-opacity="1" stop-color="rgb(91.827393%, 13.623047%, 34.526062%)" offset="0.371094"/><stop stop-opacity="1" stop-color="rgb(91.862488%, 13.722229%, 34.312439%)" offset="0.375"/><stop stop-opacity="1" stop-color="rgb(91.896057%, 13.819885%, 34.09729%)" offset="0.378906"/><stop stop-opacity="1" stop-color="rgb(91.929626%, 13.917542%, 33.882141%)" offset="0.382812"/><stop stop-opacity="1" stop-color="rgb(91.963196%, 14.015198%, 33.666992%)" offset="0.386719"/><stop stop-opacity="1" stop-color="rgb(91.996765%, 14.11438%, 33.453369%)" offset="0.390625"/><stop stop-opacity="1" stop-color="rgb(92.030334%, 14.212036%, 33.23822%)" offset="0.394531"/><stop stop-opacity="1" stop-color="rgb(92.063904%, 14.309692%, 33.024597%)" offset="0.398438"/><stop stop-opacity="1" stop-color="rgb(92.097473%, 14.407349%, 32.809448%)" offset="0.402344"/><stop stop-opacity="1" stop-color="rgb(92.131042%, 14.506531%, 32.595825%)" offset="0.40625"/><stop stop-opacity="1" stop-color="rgb(92.164612%, 14.604187%, 32.380676%)" offset="0.410156"/><stop stop-opacity="1" stop-color="rgb(92.198181%, 14.701843%, 32.167053%)" offset="0.414062"/><stop stop-opacity="1" stop-color="rgb(92.23175%, 14.7995%, 31.951904%)" offset="0.417969"/><stop stop-opacity="1" stop-color="rgb(92.26532%, 14.898682%, 31.738281%)" offset="0.421875"/><stop stop-opacity="1" stop-color="rgb(92.298889%, 14.996338%, 31.523132%)" offset="0.425781"/><stop stop-opacity="1" stop-color="rgb(92.332458%, 15.093994%, 31.309509%)" offset="0.429688"/><stop stop-opacity="1" stop-color="rgb(92.366028%, 15.19165%, 31.09436%)" offset="0.433594"/><stop stop-opacity="1" stop-color="rgb(92.401123%, 15.290833%, 30.880737%)" offset="0.4375"/><stop stop-opacity="1" stop-color="rgb(92.434692%, 15.388489%, 30.665588%)" offset="0.441406"/><stop stop-opacity="1" stop-color="rgb(92.468262%, 15.486145%, 30.451965%)" offset="0.445313"/><stop stop-opacity="1" stop-color="rgb(92.501831%, 15.583801%, 30.236816%)" offset="0.449219"/><stop stop-opacity="1" stop-color="rgb(92.5354%, 15.682983%, 30.023193%)" offset="0.453125"/><stop stop-opacity="1" stop-color="rgb(92.56897%, 15.78064%, 29.808044%)" offset="0.457031"/><stop stop-opacity="1" stop-color="rgb(92.602539%, 15.878296%, 29.594421%)" offset="0.460938"/><stop stop-opacity="1" stop-color="rgb(92.636108%, 15.975952%, 29.379272%)" offset="0.464844"/><stop stop-opacity="1" stop-color="rgb(92.669678%, 16.075134%, 29.164124%)" offset="0.46875"/><stop stop-opacity="1" stop-color="rgb(92.703247%, 16.172791%, 28.948975%)" offset="0.472656"/><stop stop-opacity="1" stop-color="rgb(92.736816%, 16.270447%, 28.735352%)" offset="0.476562"/><stop stop-opacity="1" stop-color="rgb(92.770386%, 16.368103%, 28.520203%)" offset="0.480469"/><stop stop-opacity="1" stop-color="rgb(92.803955%, 16.467285%, 28.30658%)" offset="0.484375"/><stop stop-opacity="1" stop-color="rgb(92.837524%, 16.564941%, 28.091431%)" offset="0.488281"/><stop stop-opacity="1" stop-color="rgb(92.87262%, 16.662598%, 27.877808%)" offset="0.492188"/><stop stop-opacity="1" stop-color="rgb(92.906189%, 16.760254%, 27.662659%)" offset="0.496094"/><stop stop-opacity="1" stop-color="rgb(92.939758%, 16.859436%, 27.449036%)" offset="0.5"/><stop stop-opacity="1" stop-color="rgb(92.973328%, 16.957092%, 27.233887%)" offset="0.503906"/><stop stop-opacity="1" stop-color="rgb(93.006897%, 17.054749%, 27.020264%)" offset="0.507813"/><stop stop-opacity="1" stop-color="rgb(93.040466%, 17.152405%, 26.805115%)" offset="0.511719"/><stop stop-opacity="1" stop-color="rgb(93.074036%, 17.251587%, 26.591492%)" offset="0.515625"/><stop stop-opacity="1" stop-color="rgb(93.107605%, 17.349243%, 26.376343%)" offset="0.519531"/><stop stop-opacity="1" stop-color="rgb(93.141174%, 17.446899%, 26.16272%)" offset="0.523438"/><stop stop-opacity="1" stop-color="rgb(93.174744%, 17.544556%, 25.947571%)" offset="0.527344"/><stop stop-opacity="1" stop-color="rgb(93.208313%, 17.643738%, 25.733948%)" offset="0.53125"/><stop stop-opacity="1" stop-color="rgb(93.241882%, 17.741394%, 25.518799%)" offset="0.535156"/><stop stop-opacity="1" stop-color="rgb(93.275452%, 17.83905%, 25.305176%)" offset="0.539062"/><stop stop-opacity="1" stop-color="rgb(93.309021%, 17.936707%, 25.090027%)" offset="0.542969"/><stop stop-opacity="1" stop-color="rgb(93.34259%, 18.035889%, 24.876404%)" offset="0.546875"/><stop stop-opacity="1" stop-color="rgb(93.37616%, 18.133545%, 24.661255%)" offset="0.550781"/><stop stop-opacity="1" stop-color="rgb(93.411255%, 18.231201%, 24.447632%)" offset="0.554688"/><stop stop-opacity="1" stop-color="rgb(93.444824%, 18.328857%, 24.232483%)" offset="0.558594"/><stop stop-opacity="1" stop-color="rgb(93.478394%, 18.42804%, 24.017334%)" offset="0.5625"/><stop stop-opacity="1" stop-color="rgb(93.511963%, 18.525696%, 23.802185%)" offset="0.566406"/><stop stop-opacity="1" stop-color="rgb(93.545532%, 18.623352%, 23.588562%)" offset="0.570312"/><stop stop-opacity="1" stop-color="rgb(93.579102%, 18.721008%, 23.373413%)" offset="0.574219"/><stop stop-opacity="1" stop-color="rgb(93.612671%, 18.82019%, 23.15979%)" offset="0.578125"/><stop stop-opacity="1" stop-color="rgb(93.64624%, 18.917847%, 22.944641%)" offset="0.582031"/><stop stop-opacity="1" stop-color="rgb(93.67981%, 19.017029%, 22.731018%)" offset="0.585937"/><stop stop-opacity="1" stop-color="rgb(93.713379%, 19.114685%, 22.515869%)" offset="0.589844"/><stop stop-opacity="1" stop-color="rgb(93.746948%, 19.212341%, 22.302246%)" offset="0.59375"/><stop stop-opacity="1" stop-color="rgb(93.780518%, 19.309998%, 22.087097%)" offset="0.597656"/><stop stop-opacity="1" stop-color="rgb(93.814087%, 19.40918%, 21.873474%)" offset="0.601563"/><stop stop-opacity="1" stop-color="rgb(93.847656%, 19.506836%, 21.658325%)" offset="0.605469"/><stop stop-opacity="1" stop-color="rgb(93.882751%, 19.604492%, 21.444702%)" offset="0.609375"/><stop stop-opacity="1" stop-color="rgb(93.916321%, 19.702148%, 21.229553%)" offset="0.613281"/><stop stop-opacity="1" stop-color="rgb(93.94989%, 19.801331%, 21.01593%)" offset="0.617188"/><stop stop-opacity="1" stop-color="rgb(93.983459%, 19.898987%, 20.800781%)" offset="0.621094"/><stop stop-opacity="1" stop-color="rgb(94.017029%, 19.996643%, 20.587158%)" offset="0.625"/><stop stop-opacity="1" stop-color="rgb(94.050598%, 20.094299%, 20.372009%)" offset="0.628906"/><stop stop-opacity="1" stop-color="rgb(94.084167%, 20.193481%, 20.158386%)" offset="0.632812"/><stop stop-opacity="1" stop-color="rgb(94.117737%, 20.291138%, 19.943237%)" offset="0.636719"/><stop stop-opacity="1" stop-color="rgb(94.151306%, 20.388794%, 19.729614%)" offset="0.640625"/><stop stop-opacity="1" stop-color="rgb(94.184875%, 20.48645%, 19.514465%)" offset="0.644531"/><stop stop-opacity="1" stop-color="rgb(94.218445%, 20.585632%, 19.299316%)" offset="0.648438"/><stop stop-opacity="1" stop-color="rgb(94.252014%, 20.683289%, 19.084167%)" offset="0.652344"/><stop stop-opacity="1" stop-color="rgb(94.285583%, 20.780945%, 18.870544%)" offset="0.65625"/><stop stop-opacity="1" stop-color="rgb(94.319153%, 20.878601%, 18.655396%)" offset="0.660156"/><stop stop-opacity="1" stop-color="rgb(94.352722%, 20.977783%, 18.441772%)" offset="0.664062"/><stop stop-opacity="1" stop-color="rgb(94.386292%, 21.075439%, 18.226624%)" offset="0.667969"/><stop stop-opacity="1" stop-color="rgb(94.421387%, 21.173096%, 18.013%)" offset="0.671875"/><stop stop-opacity="1" stop-color="rgb(94.454956%, 21.270752%, 17.797852%)" offset="0.675781"/><stop stop-opacity="1" stop-color="rgb(94.488525%, 21.369934%, 17.584229%)" offset="0.679687"/><stop stop-opacity="1" stop-color="rgb(94.522095%, 21.46759%, 17.36908%)" offset="0.683594"/><stop stop-opacity="1" stop-color="rgb(94.555664%, 21.565247%, 17.155457%)" offset="0.6875"/><stop stop-opacity="1" stop-color="rgb(94.589233%, 21.662903%, 16.940308%)" offset="0.691406"/><stop stop-opacity="1" stop-color="rgb(94.622803%, 21.762085%, 16.726685%)" offset="0.695313"/><stop stop-opacity="1" stop-color="rgb(94.656372%, 21.859741%, 16.511536%)" offset="0.699219"/><stop stop-opacity="1" stop-color="rgb(94.689941%, 21.957397%, 16.297913%)" offset="0.703125"/><stop stop-opacity="1" stop-color="rgb(94.723511%, 22.055054%, 16.082764%)" offset="0.707031"/><stop stop-opacity="1" stop-color="rgb(94.75708%, 22.154236%, 15.869141%)" offset="0.710938"/><stop stop-opacity="1" stop-color="rgb(94.790649%, 22.251892%, 15.653992%)" offset="0.714844"/><stop stop-opacity="1" stop-color="rgb(94.824219%, 22.349548%, 15.440369%)" offset="0.71875"/><stop stop-opacity="1" stop-color="rgb(94.857788%, 22.447205%, 15.22522%)" offset="0.722656"/><stop stop-opacity="1" stop-color="rgb(94.892883%, 22.546387%, 15.011597%)" offset="0.726562"/><stop stop-opacity="1" stop-color="rgb(94.926453%, 22.644043%, 14.796448%)" offset="0.730469"/><stop stop-opacity="1" stop-color="rgb(94.960022%, 22.741699%, 14.581299%)" offset="0.734375"/><stop stop-opacity="1" stop-color="rgb(94.993591%, 22.839355%, 14.36615%)" offset="0.738281"/><stop stop-opacity="1" stop-color="rgb(95.027161%, 22.938538%, 14.152527%)" offset="0.742188"/><stop stop-opacity="1" stop-color="rgb(95.06073%, 23.036194%, 13.937378%)" offset="0.746094"/><stop stop-opacity="1" stop-color="rgb(95.094299%, 23.13385%, 13.723755%)" offset="0.75"/><stop stop-opacity="1" stop-color="rgb(95.127869%, 23.231506%, 13.508606%)" offset="0.753906"/><stop stop-opacity="1" stop-color="rgb(95.161438%, 23.330688%, 13.294983%)" offset="0.757812"/><stop stop-opacity="1" stop-color="rgb(95.195007%, 23.428345%, 13.079834%)" offset="0.761719"/><stop stop-opacity="1" stop-color="rgb(95.228577%, 23.526001%, 12.866211%)" offset="0.765625"/><stop stop-opacity="1" stop-color="rgb(95.262146%, 23.623657%, 12.651062%)" offset="0.769531"/><stop stop-opacity="1" stop-color="rgb(95.295715%, 23.722839%, 12.437439%)" offset="0.773438"/><stop stop-opacity="1" stop-color="rgb(95.329285%, 23.820496%, 12.22229%)" offset="0.777344"/><stop stop-opacity="1" stop-color="rgb(95.362854%, 23.918152%, 12.008667%)" offset="0.78125"/><stop stop-opacity="1" stop-color="rgb(95.396423%, 24.015808%, 11.793518%)" offset="0.785156"/><stop stop-opacity="1" stop-color="rgb(95.431519%, 24.11499%, 11.579895%)" offset="0.789063"/><stop stop-opacity="1" stop-color="rgb(95.465088%, 24.212646%, 11.364746%)" offset="0.792969"/><stop stop-opacity="1" stop-color="rgb(95.498657%, 24.310303%, 11.151123%)" offset="0.796875"/><stop stop-opacity="1" stop-color="rgb(95.532227%, 24.407959%, 10.935974%)" offset="0.800781"/><stop stop-opacity="1" stop-color="rgb(95.565796%, 24.507141%, 10.722351%)" offset="0.804688"/><stop stop-opacity="1" stop-color="rgb(95.599365%, 24.604797%, 10.507202%)" offset="0.808594"/><stop stop-opacity="1" stop-color="rgb(95.632935%, 24.702454%, 10.293579%)" offset="0.8125"/><stop stop-opacity="1" stop-color="rgb(95.666504%, 24.80011%, 10.07843%)" offset="0.816406"/><stop stop-opacity="1" stop-color="rgb(95.700073%, 24.899292%, 9.864807%)" offset="0.820312"/><stop stop-opacity="1" stop-color="rgb(95.733643%, 24.996948%, 9.649658%)" offset="0.824219"/><stop stop-opacity="1" stop-color="rgb(95.767212%, 25.094604%, 9.434509%)" offset="0.828125"/><stop stop-opacity="1" stop-color="rgb(95.800781%, 25.192261%, 9.21936%)" offset="0.832031"/><stop stop-opacity="1" stop-color="rgb(95.834351%, 25.291443%, 9.005737%)" offset="0.835938"/><stop stop-opacity="1" stop-color="rgb(95.86792%, 25.389099%, 8.790588%)" offset="0.839844"/><stop stop-opacity="1" stop-color="rgb(95.903015%, 25.486755%, 8.576965%)" offset="0.84375"/><stop stop-opacity="1" stop-color="rgb(95.936584%, 25.584412%, 8.361816%)" offset="0.847656"/><stop stop-opacity="1" stop-color="rgb(95.970154%, 25.683594%, 8.148193%)" offset="0.851562"/><stop stop-opacity="1" stop-color="rgb(96.003723%, 25.78125%, 7.933044%)" offset="0.855469"/><stop stop-opacity="1" stop-color="rgb(96.037292%, 25.878906%, 7.719421%)" offset="0.859375"/><stop stop-opacity="1" stop-color="rgb(96.070862%, 25.976562%, 7.504272%)" offset="0.863281"/><stop stop-opacity="1" stop-color="rgb(96.104431%, 26.075745%, 7.290649%)" offset="0.867188"/><stop stop-opacity="1" stop-color="rgb(96.138%, 26.173401%, 7.0755%)" offset="0.871094"/><stop stop-opacity="1" stop-color="rgb(96.17157%, 26.271057%, 6.861877%)" offset="0.875"/><stop stop-opacity="1" stop-color="rgb(96.205139%, 26.368713%, 6.646729%)" offset="0.878906"/><stop stop-opacity="1" stop-color="rgb(96.238708%, 26.467896%, 6.433105%)" offset="0.882813"/><stop stop-opacity="1" stop-color="rgb(96.272278%, 26.565552%, 6.217957%)" offset="0.886719"/><stop stop-opacity="1" stop-color="rgb(96.305847%, 26.663208%, 6.004333%)" offset="0.890625"/><stop stop-opacity="1" stop-color="rgb(96.339417%, 26.760864%, 5.789185%)" offset="0.894531"/><stop stop-opacity="1" stop-color="rgb(96.374512%, 26.860046%, 5.575562%)" offset="0.898438"/><stop stop-opacity="1" stop-color="rgb(96.408081%, 26.957703%, 5.360413%)" offset="0.902344"/><stop stop-opacity="1" stop-color="rgb(96.44165%, 27.055359%, 5.14679%)" offset="0.90625"/><stop stop-opacity="1" stop-color="rgb(96.47522%, 27.153015%, 4.931641%)" offset="0.910156"/><stop stop-opacity="1" stop-color="rgb(96.508789%, 27.252197%, 4.716492%)" offset="0.914062"/><stop stop-opacity="1" stop-color="rgb(96.542358%, 27.349854%, 4.501343%)" offset="0.917969"/><stop stop-opacity="1" stop-color="rgb(96.575928%, 27.449036%, 4.28772%)" offset="0.921875"/><stop stop-opacity="1" stop-color="rgb(96.609497%, 27.546692%, 4.072571%)" offset="0.925781"/><stop stop-opacity="1" stop-color="rgb(96.643066%, 27.644348%, 3.858948%)" offset="0.929688"/><stop stop-opacity="1" stop-color="rgb(96.676636%, 27.742004%, 3.643799%)" offset="0.933594"/><stop stop-opacity="1" stop-color="rgb(96.710205%, 27.841187%, 3.430176%)" offset="0.9375"/><stop stop-opacity="1" stop-color="rgb(96.743774%, 27.938843%, 3.215027%)" offset="0.941406"/><stop stop-opacity="1" stop-color="rgb(96.777344%, 28.036499%, 3.001404%)" offset="0.945312"/><stop stop-opacity="1" stop-color="rgb(96.810913%, 28.134155%, 2.786255%)" offset="0.949219"/><stop stop-opacity="1" stop-color="rgb(96.844482%, 28.233337%, 2.572632%)" offset="0.953125"/><stop stop-opacity="1" stop-color="rgb(96.878052%, 28.330994%, 2.357483%)" offset="0.957031"/><stop stop-opacity="1" stop-color="rgb(96.913147%, 28.42865%, 2.14386%)" offset="0.960938"/><stop stop-opacity="1" stop-color="rgb(96.946716%, 28.526306%, 1.928711%)" offset="0.964844"/><stop stop-opacity="1" stop-color="rgb(96.980286%, 28.625488%, 1.715088%)" offset="0.96875"/><stop stop-opacity="1" stop-color="rgb(97.013855%, 28.723145%, 1.499939%)" offset="0.972656"/><stop stop-opacity="1" stop-color="rgb(97.047424%, 28.820801%, 1.286316%)" offset="0.976563"/><stop stop-opacity="1" stop-color="rgb(97.080994%, 28.918457%, 1.071167%)" offset="0.980469"/><stop stop-opacity="1" stop-color="rgb(97.114563%, 29.017639%, 0.857544%)" offset="0.984375"/><stop stop-opacity="1" stop-color="rgb(97.148132%, 29.115295%, 0.642395%)" offset="0.988281"/><stop stop-opacity="1" stop-color="rgb(97.181702%, 29.212952%, 0.428772%)" offset="0.992188"/><stop stop-opacity="1" stop-color="rgb(97.215271%, 29.310608%, 0.213623%)" offset="0.996094"/><stop stop-opacity="1" stop-color="rgb(97.24884%, 29.40979%, 0%)" offset="1"/></linearGradient><clipPath id="2b9c02e540"><rect x="0" width="328" y="0" height="274"/></clipPath><clipPath id="8fa181929b"><rect x="0" width="149" y="0" height="28"/></clipPath><clipPath id="85e5de489b"><path d="M 7 68.089844 L 159 68.089844 L 159 205.699219 L 7 205.699219 Z M 7 68.089844 " clip-rule="nonzero"/></clipPath><clipPath id="41a4da8a8d"><rect x="0" width="330" y="0" height="274"/></clipPath><clipPath id="43e2aa4544"><rect x="0" width="595" y="0" height="280"/></clipPath></defs><g clip-path="url(#5569081a04)"><g transform="matrix(1, 0, 0, 1, 0.000000000000000056, 0)"><g clip-path="url(#43e2aa4544)"><g clip-path="url(#bd44f49591)"></g><g transform="matrix(1, 0, 0, 1, 134, 3)"><g clip-path="url(#41a4da8a8d)"><g clip-path="url(#63a2bfc1fe)"><g clip-path="url(#1cc986c7e5)"><g transform="matrix(1, 0, 0, 1, 1, 0)"><g clip-path="url(#2b9c02e540)"><g clip-path="url(#efe16054eb)"><g clip-path="url(#5ffbfe990e)"><path fill="url(#6939132ac7)" d="M 327.691406 0.6875 L 0.359375 0.6875 L 0.359375 273.316406 L 327.691406 273.316406 Z M 327.691406 0.6875 " fill-rule="nonzero"/></g></g></g></g></g></g><g transform="matrix(1, 0, 0, 1, 161, 123)"><g clip-path="url(#8fa181929b)"><g fill="#ffffff" fill-opacity="1"><g transform="translate(1.614892, 19.732149)"><g><path d="M 5.4375 0.203125 C 4.519531 0.203125 3.726562 0.03125 3.0625 -0.3125 C 2.40625 -0.664062 1.894531 -1.144531 1.53125 -1.75 C 1.175781 -2.363281 1 -3.039062 1 -3.78125 L 1 -8.875 L 3.6875 -8.875 L 3.6875 -3.84375 C 3.6875 -3.53125 3.757812 -3.242188 3.90625 -2.984375 C 4.0625 -2.722656 4.269531 -2.515625 4.53125 -2.359375 C 4.789062 -2.203125 5.085938 -2.125 5.421875 -2.125 C 5.742188 -2.125 6.035156 -2.203125 6.296875 -2.359375 C 6.554688 -2.515625 6.757812 -2.722656 6.90625 -2.984375 C 7.050781 -3.242188 7.125 -3.53125 7.125 -3.84375 L 7.125 -8.875 L 9.8125 -8.875 L 9.8125 -3.78125 C 9.8125 -3.039062 9.640625 -2.363281 9.296875 -1.75 C 8.953125 -1.144531 8.453125 -0.664062 7.796875 -0.3125 C 7.148438 0.03125 6.363281 0.203125 5.4375 0.203125 Z M 5.4375 0.203125 "/></g></g></g><g fill="#ffffff" fill-opacity="1"><g transform="translate(12.423881, 19.732149)"><g><path d="M 1 0 L 1 -12.640625 L 3.6875 -12.640625 L 3.6875 0 Z M 1 0 "/></g></g></g><g fill="#ffffff" fill-opacity="1"><g transform="translate(17.09336, 19.732149)"><g><path d="M 4.265625 0 C 3.441406 0 2.796875 -0.234375 2.328125 -0.703125 C 1.867188 -1.171875 1.640625 -1.800781 1.640625 -2.59375 L 1.640625 -11.046875 L 4.34375 -11.046875 L 4.34375 -2.75 C 4.34375 -2.613281 4.390625 -2.492188 4.484375 -2.390625 C 4.585938 -2.296875 4.707031 -2.25 4.84375 -2.25 L 6.78125 -2.25 L 6.78125 0 Z M 0.1875 -6.6875 L 0.1875 -8.875 L 6.78125 -8.875 L 6.78125 -6.6875 Z M 0.1875 -6.6875 "/></g></g></g><g fill="#ffffff" fill-opacity="1"><g transform="translate(24.512646, 19.732149)"><g><path d="M 1 0 L 1 -8.875 L 3.703125 -8.875 L 3.703125 0 Z M 2.359375 -9.875 C 1.929688 -9.875 1.5625 -10.03125 1.25 -10.34375 C 0.9375 -10.65625 0.78125 -11.023438 0.78125 -11.453125 C 0.78125 -11.878906 0.9375 -12.25 1.25 -12.5625 C 1.5625 -12.882812 1.929688 -13.046875 2.359375 -13.046875 C 2.785156 -13.046875 3.15625 -12.882812 3.46875 -12.5625 C 3.78125 -12.25 3.9375 -11.878906 3.9375 -11.453125 C 3.9375 -11.023438 3.78125 -10.65625 3.46875 -10.34375 C 3.15625 -10.03125 2.785156 -9.875 2.359375 -9.875 Z M 2.359375 -9.875 "/></g></g></g><g fill="#ffffff" fill-opacity="1"><g transform="translate(29.182126, 19.732149)"><g><path d="M 1.015625 0 L 1.015625 -2.125 L 5.296875 -2.125 C 5.410156 -2.125 5.515625 -2.148438 5.609375 -2.203125 C 5.703125 -2.253906 5.773438 -2.328125 5.828125 -2.421875 C 5.890625 -2.515625 5.921875 -2.613281 5.921875 -2.71875 C 5.921875 -2.832031 5.890625 -2.9375 5.828125 -3.03125 C 5.773438 -3.125 5.703125 -3.195312 5.609375 -3.25 C 5.515625 -3.300781 5.410156 -3.328125 5.296875 -3.328125 L 3.734375 -3.328125 C 3.160156 -3.328125 2.640625 -3.421875 2.171875 -3.609375 C 1.703125 -3.796875 1.332031 -4.09375 1.0625 -4.5 C 0.789062 -4.914062 0.65625 -5.453125 0.65625 -6.109375 C 0.65625 -6.617188 0.78125 -7.082031 1.03125 -7.5 C 1.28125 -7.914062 1.617188 -8.25 2.046875 -8.5 C 2.484375 -8.75 2.960938 -8.875 3.484375 -8.875 L 7.75 -8.875 L 7.75 -6.734375 L 3.890625 -6.734375 C 3.734375 -6.734375 3.597656 -6.679688 3.484375 -6.578125 C 3.378906 -6.472656 3.328125 -6.347656 3.328125 -6.203125 C 3.328125 -6.035156 3.378906 -5.894531 3.484375 -5.78125 C 3.597656 -5.675781 3.734375 -5.625 3.890625 -5.625 L 5.421875 -5.625 C 6.066406 -5.625 6.625 -5.53125 7.09375 -5.34375 C 7.5625 -5.15625 7.921875 -4.851562 8.171875 -4.4375 C 8.429688 -4.019531 8.5625 -3.484375 8.5625 -2.828125 C 8.5625 -2.304688 8.429688 -1.832031 8.171875 -1.40625 C 7.921875 -0.976562 7.578125 -0.632812 7.140625 -0.375 C 6.710938 -0.125 6.222656 0 5.671875 0 Z M 1.015625 0 "/></g></g></g><g fill="#ffffff" fill-opacity="1"><g transform="translate(38.348149, 19.732149)"><g><path d="M 5.640625 0 C 4.640625 0 3.757812 -0.1875 3 -0.5625 C 2.238281 -0.9375 1.644531 -1.453125 1.21875 -2.109375 C 0.800781 -2.773438 0.59375 -3.550781 0.59375 -4.4375 C 0.59375 -5.40625 0.789062 -6.234375 1.1875 -6.921875 C 1.59375 -7.617188 2.132812 -8.15625 2.8125 -8.53125 C 3.488281 -8.90625 4.238281 -9.09375 5.0625 -9.09375 C 5.988281 -9.09375 6.765625 -8.894531 7.390625 -8.5 C 8.023438 -8.101562 8.503906 -7.566406 8.828125 -6.890625 C 9.148438 -6.222656 9.3125 -5.457031 9.3125 -4.59375 C 9.3125 -4.4375 9.300781 -4.253906 9.28125 -4.046875 C 9.269531 -3.847656 9.253906 -3.691406 9.234375 -3.578125 L 3.40625 -3.578125 C 3.476562 -3.285156 3.613281 -3.035156 3.8125 -2.828125 C 4.007812 -2.617188 4.253906 -2.460938 4.546875 -2.359375 C 4.847656 -2.265625 5.1875 -2.21875 5.5625 -2.21875 L 8.28125 -2.21875 L 8.28125 0 Z M 3.34375 -5.265625 L 6.71875 -5.265625 C 6.695312 -5.453125 6.660156 -5.628906 6.609375 -5.796875 C 6.566406 -5.972656 6.492188 -6.125 6.390625 -6.25 C 6.296875 -6.382812 6.1875 -6.5 6.0625 -6.59375 C 5.9375 -6.695312 5.785156 -6.773438 5.609375 -6.828125 C 5.441406 -6.890625 5.257812 -6.921875 5.0625 -6.921875 C 4.789062 -6.921875 4.550781 -6.875 4.34375 -6.78125 C 4.132812 -6.6875 3.960938 -6.5625 3.828125 -6.40625 C 3.691406 -6.257812 3.582031 -6.082031 3.5 -5.875 C 3.425781 -5.675781 3.375 -5.472656 3.34375 -5.265625 Z M 3.34375 -5.265625 "/></g></g></g><g fill="#ffffff" fill-opacity="1"><g transform="translate(48.205945, 19.732149)"><g><path d="M 0.9375 0 L 0.9375 -6.265625 C 0.9375 -7.078125 1.164062 -7.710938 1.625 -8.171875 C 2.082031 -8.628906 2.722656 -8.859375 3.546875 -8.859375 L 6.125 -8.859375 L 6.125 -6.6875 L 4.203125 -6.6875 C 4.046875 -6.6875 3.910156 -6.628906 3.796875 -6.515625 C 3.679688 -6.410156 3.625 -6.269531 3.625 -6.09375 L 3.625 0 Z M 0.9375 0 "/></g></g></g><g fill="#ffffff" fill-opacity="1"><g transform="translate(54.51839, 19.732149)"><g><path d="M 5.0625 0.203125 C 4.53125 0.203125 4.039062 0.0664062 3.59375 -0.203125 C 3.15625 -0.484375 2.859375 -0.859375 2.703125 -1.328125 L 0.171875 -8.875 L 3.109375 -8.875 L 4.90625 -2.546875 C 4.925781 -2.492188 4.945312 -2.457031 4.96875 -2.4375 C 5 -2.414062 5.035156 -2.40625 5.078125 -2.40625 C 5.117188 -2.40625 5.15625 -2.414062 5.1875 -2.4375 C 5.21875 -2.457031 5.238281 -2.492188 5.25 -2.546875 L 7.0625 -8.875 L 9.9375 -8.875 L 7.40625 -1.328125 C 7.25 -0.859375 6.953125 -0.484375 6.515625 -0.203125 C 6.085938 0.0664062 5.601562 0.203125 5.0625 0.203125 Z M 5.0625 0.203125 "/></g></g></g><g fill="#ffffff" fill-opacity="1"><g transform="translate(64.618318, 19.732149)"><g><path d="M 1 0 L 1 -8.875 L 3.703125 -8.875 L 3.703125 0 Z M 2.359375 -9.875 C 1.929688 -9.875 1.5625 -10.03125 1.25 -10.34375 C 0.9375 -10.65625 0.78125 -11.023438 0.78125 -11.453125 C 0.78125 -11.878906 0.9375 -12.25 1.25 -12.5625 C 1.5625 -12.882812 1.929688 -13.046875 2.359375 -13.046875 C 2.785156 -13.046875 3.15625 -12.882812 3.46875 -12.5625 C 3.78125 -12.25 3.9375 -11.878906 3.9375 -11.453125 C 3.9375 -11.023438 3.78125 -10.65625 3.46875 -10.34375 C 3.15625 -10.03125 2.785156 -9.875 2.359375 -9.875 Z M 2.359375 -9.875 "/></g></g></g><g fill="#ffffff" fill-opacity="1"><g transform="translate(69.287797, 19.732149)"><g><path d="M 5.359375 0 C 4.441406 0 3.625 -0.191406 2.90625 -0.578125 C 2.1875 -0.960938 1.617188 -1.488281 1.203125 -2.15625 C 0.796875 -2.820312 0.59375 -3.582031 0.59375 -4.4375 C 0.59375 -5.289062 0.796875 -6.046875 1.203125 -6.703125 C 1.617188 -7.367188 2.1875 -7.894531 2.90625 -8.28125 C 3.625 -8.675781 4.441406 -8.875 5.359375 -8.875 L 6.703125 -8.875 L 6.703125 -6.609375 L 5.46875 -6.609375 C 5.019531 -6.609375 4.632812 -6.515625 4.3125 -6.328125 C 3.988281 -6.140625 3.738281 -5.878906 3.5625 -5.546875 C 3.382812 -5.222656 3.296875 -4.851562 3.296875 -4.4375 C 3.296875 -4.019531 3.382812 -3.644531 3.5625 -3.3125 C 3.738281 -2.988281 3.988281 -2.726562 4.3125 -2.53125 C 4.632812 -2.34375 5.019531 -2.25 5.46875 -2.25 L 6.703125 -2.25 L 6.703125 0 Z M 5.359375 0 "/></g></g></g><g fill="#ffffff" fill-opacity="1"><g transform="translate(76.464967, 19.732149)"><g><path d="M 1 0 L 1 -8.875 L 3.703125 -8.875 L 3.703125 0 Z M 2.359375 -9.875 C 1.929688 -9.875 1.5625 -10.03125 1.25 -10.34375 C 0.9375 -10.65625 0.78125 -11.023438 0.78125 -11.453125 C 0.78125 -11.878906 0.9375 -12.25 1.25 -12.5625 C 1.5625 -12.882812 1.929688 -13.046875 2.359375 -13.046875 C 2.785156 -13.046875 3.15625 -12.882812 3.46875 -12.5625 C 3.78125 -12.25 3.9375 -11.878906 3.9375 -11.453125 C 3.9375 -11.023438 3.78125 -10.65625 3.46875 -10.34375 C 3.15625 -10.03125 2.785156 -9.875 2.359375 -9.875 Z M 2.359375 -9.875 "/></g></g></g><g fill="#ffffff" fill-opacity="1"><g transform="translate(81.134447, 19.732149)"><g><path d="M 5.40625 0.203125 C 4.488281 0.203125 3.664062 0.00390625 2.9375 -0.390625 C 2.21875 -0.796875 1.644531 -1.347656 1.21875 -2.046875 C 0.800781 -2.753906 0.59375 -3.550781 0.59375 -4.4375 C 0.59375 -5.320312 0.800781 -6.113281 1.21875 -6.8125 C 1.644531 -7.507812 2.21875 -8.0625 2.9375 -8.46875 C 3.664062 -8.882812 4.488281 -9.09375 5.40625 -9.09375 C 6.3125 -9.09375 7.125 -8.882812 7.84375 -8.46875 C 8.570312 -8.0625 9.144531 -7.507812 9.5625 -6.8125 C 9.988281 -6.113281 10.203125 -5.320312 10.203125 -4.4375 C 10.203125 -3.550781 9.988281 -2.753906 9.5625 -2.046875 C 9.144531 -1.347656 8.570312 -0.796875 7.84375 -0.390625 C 7.113281 0.00390625 6.300781 0.203125 5.40625 0.203125 Z M 5.40625 -2.125 C 5.832031 -2.125 6.203125 -2.226562 6.515625 -2.4375 C 6.828125 -2.644531 7.066406 -2.921875 7.234375 -3.265625 C 7.410156 -3.617188 7.5 -4.015625 7.5 -4.453125 C 7.5 -4.878906 7.410156 -5.265625 7.234375 -5.609375 C 7.066406 -5.953125 6.828125 -6.226562 6.515625 -6.4375 C 6.203125 -6.644531 5.832031 -6.75 5.40625 -6.75 C 4.976562 -6.75 4.601562 -6.644531 4.28125 -6.4375 C 3.96875 -6.226562 3.722656 -5.953125 3.546875 -5.609375 C 3.378906 -5.265625 3.296875 -4.878906 3.296875 -4.453125 C 3.296875 -4.015625 3.378906 -3.617188 3.546875 -3.265625 C 3.722656 -2.921875 3.96875 -2.644531 4.28125 -2.4375 C 4.601562 -2.226562 4.976562 -2.125 5.40625 -2.125 Z M 5.40625 -2.125 "/></g></g></g><g fill="#ffffff" fill-opacity="1"><g transform="translate(91.908845, 19.732149)"><g><path d="M 1.015625 0 L 1.015625 -2.125 L 5.296875 -2.125 C 5.410156 -2.125 5.515625 -2.148438 5.609375 -2.203125 C 5.703125 -2.253906 5.773438 -2.328125 5.828125 -2.421875 C 5.890625 -2.515625 5.921875 -2.613281 5.921875 -2.71875 C 5.921875 -2.832031 5.890625 -2.9375 5.828125 -3.03125 C 5.773438 -3.125 5.703125 -3.195312 5.609375 -3.25 C 5.515625 -3.300781 5.410156 -3.328125 5.296875 -3.328125 L 3.734375 -3.328125 C 3.160156 -3.328125 2.640625 -3.421875 2.171875 -3.609375 C 1.703125 -3.796875 1.332031 -4.09375 1.0625 -4.5 C 0.789062 -4.914062 0.65625 -5.453125 0.65625 -6.109375 C 0.65625 -6.617188 0.78125 -7.082031 1.03125 -7.5 C 1.28125 -7.914062 1.617188 -8.25 2.046875 -8.5 C 2.484375 -8.75 2.960938 -8.875 3.484375 -8.875 L 7.75 -8.875 L 7.75 -6.734375 L 3.890625 -6.734375 C 3.734375 -6.734375 3.597656 -6.679688 3.484375 -6.578125 C 3.378906 -6.472656 3.328125 -6.347656 3.328125 -6.203125 C 3.328125 -6.035156 3.378906 -5.894531 3.484375 -5.78125 C 3.597656 -5.675781 3.734375 -5.625 3.890625 -5.625 L 5.421875 -5.625 C 6.066406 -5.625 6.625 -5.53125 7.09375 -5.34375 C 7.5625 -5.15625 7.921875 -4.851562 8.171875 -4.4375 C 8.429688 -4.019531 8.5625 -3.484375 8.5625 -2.828125 C 8.5625 -2.304688 8.429688 -1.832031 8.171875 -1.40625 C 7.921875 -0.976562 7.578125 -0.632812 7.140625 -0.375 C 6.710938 -0.125 6.222656 0 5.671875 0 Z M 1.015625 0 "/></g></g></g><g fill="#ffffff" fill-opacity="1"><g transform="translate(101.074868, 19.732149)"><g/></g></g><g fill="#ffffff" fill-opacity="1"><g transform="translate(105.657879, 19.732149)"><g><path d="M 6.921875 0.21875 C 5.953125 0.21875 5.070312 0.0546875 4.28125 -0.265625 C 3.5 -0.585938 2.828125 -1.035156 2.265625 -1.609375 C 1.703125 -2.179688 1.265625 -2.847656 0.953125 -3.609375 C 0.648438 -4.378906 0.5 -5.203125 0.5 -6.078125 C 0.5 -6.953125 0.648438 -7.769531 0.953125 -8.53125 C 1.265625 -9.289062 1.695312 -9.957031 2.25 -10.53125 C 2.8125 -11.101562 3.488281 -11.546875 4.28125 -11.859375 C 5.070312 -12.179688 5.953125 -12.34375 6.921875 -12.34375 C 7.878906 -12.34375 8.753906 -12.179688 9.546875 -11.859375 C 10.335938 -11.546875 11.007812 -11.101562 11.5625 -10.53125 C 12.125 -9.957031 12.5625 -9.285156 12.875 -8.515625 C 13.1875 -7.753906 13.34375 -6.941406 13.34375 -6.078125 C 13.34375 -5.203125 13.1875 -4.378906 12.875 -3.609375 C 12.5625 -2.847656 12.125 -2.179688 11.5625 -1.609375 C 11.007812 -1.035156 10.335938 -0.585938 9.546875 -0.265625 C 8.753906 0.0546875 7.878906 0.21875 6.921875 0.21875 Z M 6.921875 -2.25 C 7.429688 -2.25 7.898438 -2.34375 8.328125 -2.53125 C 8.765625 -2.726562 9.140625 -3 9.453125 -3.34375 C 9.765625 -3.6875 10.003906 -4.09375 10.171875 -4.5625 C 10.347656 -5.03125 10.4375 -5.535156 10.4375 -6.078125 C 10.4375 -6.617188 10.347656 -7.117188 10.171875 -7.578125 C 10.003906 -8.046875 9.765625 -8.453125 9.453125 -8.796875 C 9.140625 -9.140625 8.765625 -9.40625 8.328125 -9.59375 C 7.898438 -9.789062 7.429688 -9.890625 6.921875 -9.890625 C 6.398438 -9.890625 5.925781 -9.789062 5.5 -9.59375 C 5.070312 -9.40625 4.695312 -9.140625 4.375 -8.796875 C 4.0625 -8.453125 3.820312 -8.046875 3.65625 -7.578125 C 3.488281 -7.109375 3.40625 -6.609375 3.40625 -6.078125 C 3.40625 -5.535156 3.488281 -5.03125 3.65625 -4.5625 C 3.820312 -4.09375 4.0625 -3.6875 4.375 -3.34375 C 4.695312 -3 5.070312 -2.726562 5.5 -2.53125 C 5.925781 -2.34375 6.398438 -2.25 6.921875 -2.25 Z M 6.921875 -2.25 "/></g></g></g><g fill="#ffffff" fill-opacity="1"><g transform="translate(119.476094, 19.732149)"><g><path d="M 0.9375 0 L 0.9375 -6.265625 C 0.9375 -7.078125 1.164062 -7.710938 1.625 -8.171875 C 2.082031 -8.628906 2.722656 -8.859375 3.546875 -8.859375 L 6.125 -8.859375 L 6.125 -6.6875 L 4.203125 -6.6875 C 4.046875 -6.6875 3.910156 -6.628906 3.796875 -6.515625 C 3.679688 -6.410156 3.625 -6.269531 3.625 -6.09375 L 3.625 0 Z M 0.9375 0 "/></g></g></g><g fill="#ffffff" fill-opacity="1"><g transform="translate(126.134722, 19.732149)"><g><path d="M 4.265625 0 C 3.441406 0 2.796875 -0.234375 2.328125 -0.703125 C 1.867188 -1.171875 1.640625 -1.800781 1.640625 -2.59375 L 1.640625 -11.046875 L 4.34375 -11.046875 L 4.34375 -2.75 C 4.34375 -2.613281 4.390625 -2.492188 4.484375 -2.390625 C 4.585938 -2.296875 4.707031 -2.25 4.84375 -2.25 L 6.78125 -2.25 L 6.78125 0 Z M 0.1875 -6.6875 L 0.1875 -8.875 L 6.78125 -8.875 L 6.78125 -6.6875 Z M 0.1875 -6.6875 "/></g></g></g><g fill="#ffffff" fill-opacity="1"><g transform="translate(133.554008, 19.732149)"><g><path d="M 1 0 L 1 -8.875 L 3.703125 -8.875 L 3.703125 0 Z M 2.359375 -9.875 C 1.929688 -9.875 1.5625 -10.03125 1.25 -10.34375 C 0.9375 -10.65625 0.78125 -11.023438 0.78125 -11.453125 C 0.78125 -11.878906 0.9375 -12.25 1.25 -12.5625 C 1.5625 -12.882812 1.929688 -13.046875 2.359375 -13.046875 C 2.785156 -13.046875 3.15625 -12.882812 3.46875 -12.5625 C 3.78125 -12.25 3.9375 -11.878906 3.9375 -11.453125 C 3.9375 -11.023438 3.78125 -10.65625 3.46875 -10.34375 C 3.15625 -10.03125 2.785156 -9.875 2.359375 -9.875 Z M 2.359375 -9.875 "/></g></g></g><g fill="#ffffff" fill-opacity="1"><g transform="translate(138.223487, 19.732149)"><g><path d="M 2.921875 0 C 2.429688 0 2.007812 -0.101562 1.65625 -0.3125 C 1.3125 -0.519531 1.039062 -0.796875 0.84375 -1.140625 C 0.644531 -1.484375 0.546875 -1.859375 0.546875 -2.265625 C 0.546875 -2.660156 0.644531 -3.015625 0.84375 -3.328125 C 1.050781 -3.648438 1.328125 -3.921875 1.671875 -4.140625 L 4.84375 -6.25 C 4.90625 -6.28125 4.945312 -6.316406 4.96875 -6.359375 C 4.988281 -6.398438 5 -6.429688 5 -6.453125 C 5 -6.515625 4.972656 -6.566406 4.921875 -6.609375 C 4.878906 -6.648438 4.828125 -6.671875 4.765625 -6.671875 L 0.9375 -6.671875 L 0.9375 -8.875 L 5.703125 -8.875 C 6.160156 -8.875 6.554688 -8.765625 6.890625 -8.546875 C 7.234375 -8.335938 7.503906 -8.0625 7.703125 -7.71875 C 7.910156 -7.375 8.015625 -7 8.015625 -6.59375 C 8.015625 -6.21875 7.914062 -5.863281 7.71875 -5.53125 C 7.53125 -5.195312 7.273438 -4.921875 6.953125 -4.703125 L 3.796875 -2.625 C 3.742188 -2.59375 3.707031 -2.554688 3.6875 -2.515625 C 3.664062 -2.484375 3.65625 -2.453125 3.65625 -2.421875 C 3.65625 -2.367188 3.675781 -2.320312 3.71875 -2.28125 C 3.769531 -2.238281 3.828125 -2.21875 3.890625 -2.21875 L 7.84375 -2.21875 L 7.84375 0 Z M 2.921875 0 "/></g></g></g></g></g><g clip-path="url(#85e5de489b)"><path fill="#ffffff" d="M 22.101562 205.875 C 20.261719 205.875 18.351562 205.523438 16.582031 204.742188 C 9.359375 201.699219 6.03125 193.347656 9.078125 186.195312 L 47.304688 96.21875 C 47.941406 94.804688 48.71875 93.457031 49.78125 92.324219 L 50.136719 91.902344 C 53.320312 88.289062 58.136719 86.59375 62.878906 87.371094 C 67.621094 88.148438 71.65625 91.265625 73.640625 95.652344 L 92.328125 138.128906 L 130.554688 75.335938 C 132.820312 71.582031 136.714844 69.105469 141.105469 68.609375 C 145.492188 68.113281 149.8125 69.742188 152.855469 72.859375 L 153.777344 73.847656 C 156.253906 76.46875 157.667969 79.867188 157.738281 83.476562 L 158.449219 134.660156 C 158.589844 142.445312 152.289062 148.890625 144.5 149.03125 C 136.714844 149.171875 130.273438 142.871094 130.132812 135.085938 L 130.058594 130.484375 L 102.449219 175.859375 C 99.691406 180.390625 94.664062 182.941406 89.425781 182.585938 C 84.1875 182.230469 79.515625 178.976562 77.390625 174.160156 L 60.824219 136.640625 L 35.058594 197.238281 C 32.792969 202.621094 27.554688 205.875 22.101562 205.875 Z M 22.101562 205.875 " fill-opacity="1" fill-rule="nonzero"/></g><path fill="#ffffff" d="M 158.730469 173.59375 C 158.730469 174.570312 158.636719 175.539062 158.445312 176.496094 C 158.253906 177.453125 157.972656 178.382812 157.597656 179.285156 C 157.226562 180.1875 156.769531 181.042969 156.226562 181.855469 C 155.683594 182.667969 155.066406 183.417969 154.375 184.109375 C 153.6875 184.796875 152.933594 185.414062 152.125 185.957031 C 151.3125 186.5 150.457031 186.957031 149.554688 187.332031 C 148.652344 187.703125 147.722656 187.984375 146.765625 188.175781 C 145.808594 188.367188 144.839844 188.460938 143.863281 188.460938 C 142.886719 188.460938 141.921875 188.367188 140.964844 188.175781 C 140.007812 187.984375 139.078125 187.703125 138.175781 187.332031 C 137.273438 186.957031 136.417969 186.5 135.605469 185.957031 C 134.792969 185.414062 134.042969 184.796875 133.351562 184.109375 C 132.664062 183.417969 132.046875 182.667969 131.503906 181.855469 C 130.960938 181.042969 130.503906 180.1875 130.128906 179.285156 C 129.757812 178.382812 129.472656 177.453125 129.285156 176.496094 C 129.09375 175.539062 129 174.570312 129 173.59375 C 129 172.621094 129.09375 171.652344 129.285156 170.695312 C 129.472656 169.738281 129.757812 168.808594 130.128906 167.90625 C 130.503906 167.003906 130.960938 166.148438 131.503906 165.335938 C 132.046875 164.523438 132.664062 163.773438 133.351562 163.082031 C 134.042969 162.394531 134.792969 161.777344 135.605469 161.234375 C 136.417969 160.691406 137.273438 160.234375 138.175781 159.859375 C 139.078125 159.488281 140.007812 159.207031 140.964844 159.015625 C 141.921875 158.824219 142.886719 158.730469 143.863281 158.730469 C 144.839844 158.730469 145.808594 158.824219 146.765625 159.015625 C 147.722656 159.207031 148.652344 159.488281 149.554688 159.859375 C 150.457031 160.234375 151.3125 160.691406 152.125 161.234375 C 152.933594 161.777344 153.6875 162.394531 154.375 163.082031 C 155.066406 163.773438 155.683594 164.523438 156.226562 165.335938 C 156.769531 166.148438 157.226562 167.003906 157.597656 167.90625 C 157.972656 168.808594 158.253906 169.738281 158.445312 170.695312 C 158.636719 171.652344 158.730469 172.621094 158.730469 173.59375 Z M 158.730469 173.59375 " fill-opacity="1" fill-rule="nonzero"/></g></g></g></g></g></svg>