<svg xmlns="http://www.w3.org/2000/svg" xmlns:xlink="http://www.w3.org/1999/xlink" width="794" zoomAndPan="magnify" viewBox="0 0 595.5 280.499991" height="374" preserveAspectRatio="xMidYMid meet" version="1.0"><defs><filter x="0%" y="0%" width="100%" height="100%" id="5bb928a891"><feColorMatrix values="0 0 0 0 1 0 0 0 0 1 0 0 0 0 1 0 0 0 1 0" color-interpolation-filters="sRGB"/></filter><g/><clipPath id="2d15daae0a"><path d="M 0.28125 0 L 594.71875 0 L 594.71875 280 L 0.28125 280 Z M 0.28125 0 " clip-rule="nonzero"/></clipPath><clipPath id="ecd09a2de7"><path d="M 0.28125 0 L 594.445312 0 L 594.445312 279.871094 L 0.28125 279.871094 Z M 0.28125 0 " clip-rule="nonzero"/></clipPath><clipPath id="8357e0f6e9"><path d="M 174.394531 19.808594 L 420.410156 19.808594 L 420.410156 260.191406 L 174.394531 260.191406 Z M 174.394531 19.808594 " clip-rule="nonzero"/></clipPath><clipPath id="765c319982"><path d="M 297.25 19.808594 C 229.398438 19.808594 174.394531 73.621094 174.394531 140 C 174.394531 206.378906 229.398438 260.191406 297.25 260.191406 C 365.101562 260.191406 420.105469 206.378906 420.105469 140 C 420.105469 73.621094 365.101562 19.808594 297.25 19.808594 Z M 297.25 19.808594 " clip-rule="nonzero"/></clipPath><clipPath id="11e80f47c8"><path d="M 0.394531 0.808594 L 246.101562 0.808594 L 246.101562 241.191406 L 0.394531 241.191406 Z M 0.394531 0.808594 " clip-rule="nonzero"/></clipPath><clipPath id="8a62aad2a3"><path d="M 123.25 0.808594 C 55.398438 0.808594 0.394531 54.621094 0.394531 121 C 0.394531 187.378906 55.398438 241.191406 123.25 241.191406 C 191.101562 241.191406 246.105469 187.378906 246.105469 121 C 246.105469 54.621094 191.101562 0.808594 123.25 0.808594 Z M 123.25 0.808594 " clip-rule="nonzero"/></clipPath><linearGradient x1="0.00355101" gradientTransform="matrix(0.938984, 0, 0, 0.938984, 0.391191, 0.81053)" y1="128" x2="261.67899" gradientUnits="userSpaceOnUse" y2="128" id="28a9d34c69"><stop stop-opacity="1" stop-color="rgb(0%, 0%, 0%)" offset="0"/><stop stop-opacity="1" stop-color="rgb(0.175476%, 0.175476%, 0.175476%)" offset="0.0078125"/><stop stop-opacity="1" stop-color="rgb(0.527954%, 0.527954%, 0.527954%)" offset="0.015625"/><stop stop-opacity="1" stop-color="rgb(0.880432%, 0.880432%, 0.880432%)" offset="0.0234375"/><stop stop-opacity="1" stop-color="rgb(1.23291%, 1.23291%, 1.23291%)" offset="0.03125"/><stop stop-opacity="1" stop-color="rgb(1.585388%, 1.585388%, 1.585388%)" offset="0.0390625"/><stop stop-opacity="1" stop-color="rgb(1.93634%, 1.93634%, 1.93634%)" offset="0.046875"/><stop stop-opacity="1" stop-color="rgb(2.288818%, 2.288818%, 2.288818%)" offset="0.0546875"/><stop stop-opacity="1" stop-color="rgb(2.641296%, 2.641296%, 2.641296%)" offset="0.0625"/><stop stop-opacity="1" stop-color="rgb(2.993774%, 2.993774%, 2.993774%)" offset="0.0703125"/><stop stop-opacity="1" stop-color="rgb(3.346252%, 3.346252%, 3.346252%)" offset="0.078125"/><stop stop-opacity="1" stop-color="rgb(3.69873%, 3.69873%, 3.69873%)" offset="0.0859375"/><stop stop-opacity="1" stop-color="rgb(4.051208%, 4.051208%, 4.051208%)" offset="0.09375"/><stop stop-opacity="1" stop-color="rgb(4.403687%, 4.403687%, 4.403687%)" offset="0.101562"/><stop stop-opacity="1" stop-color="rgb(4.756165%, 4.756165%, 4.756165%)" offset="0.109375"/><stop stop-opacity="1" stop-color="rgb(5.108643%, 5.108643%, 5.108643%)" offset="0.117187"/><stop stop-opacity="1" stop-color="rgb(5.461121%, 5.461121%, 5.461121%)" offset="0.125"/><stop stop-opacity="1" stop-color="rgb(5.812073%, 5.812073%, 5.812073%)" offset="0.132812"/><stop stop-opacity="1" stop-color="rgb(6.164551%, 6.164551%, 6.164551%)" offset="0.140625"/><stop stop-opacity="1" stop-color="rgb(6.517029%, 6.517029%, 6.517029%)" offset="0.148437"/><stop stop-opacity="1" stop-color="rgb(6.869507%, 6.869507%, 6.869507%)" offset="0.15625"/><stop stop-opacity="1" stop-color="rgb(7.221985%, 7.221985%, 7.221985%)" offset="0.164062"/><stop stop-opacity="1" stop-color="rgb(7.574463%, 7.574463%, 7.574463%)" offset="0.171875"/><stop stop-opacity="1" stop-color="rgb(7.926941%, 7.926941%, 7.926941%)" offset="0.179687"/><stop stop-opacity="1" stop-color="rgb(8.279419%, 8.279419%, 8.279419%)" offset="0.1875"/><stop stop-opacity="1" stop-color="rgb(8.631897%, 8.631897%, 8.631897%)" offset="0.195312"/><stop stop-opacity="1" stop-color="rgb(8.984375%, 8.984375%, 8.984375%)" offset="0.203125"/><stop stop-opacity="1" stop-color="rgb(9.336853%, 9.336853%, 9.336853%)" offset="0.210937"/><stop stop-opacity="1" stop-color="rgb(9.687805%, 9.687805%, 9.687805%)" offset="0.21875"/><stop stop-opacity="1" stop-color="rgb(10.040283%, 10.040283%, 10.040283%)" offset="0.226562"/><stop stop-opacity="1" stop-color="rgb(10.392761%, 10.392761%, 10.392761%)" offset="0.234375"/><stop stop-opacity="1" stop-color="rgb(10.745239%, 10.745239%, 10.745239%)" offset="0.242187"/><stop stop-opacity="1" stop-color="rgb(11.097717%, 11.097717%, 11.097717%)" offset="0.25"/><stop stop-opacity="1" stop-color="rgb(11.450195%, 11.450195%, 11.450195%)" offset="0.257812"/><stop stop-opacity="1" stop-color="rgb(11.802673%, 11.802673%, 11.802673%)" offset="0.265625"/><stop stop-opacity="1" stop-color="rgb(12.155151%, 12.155151%, 12.155151%)" offset="0.273438"/><stop stop-opacity="1" stop-color="rgb(12.507629%, 12.507629%, 12.507629%)" offset="0.28125"/><stop stop-opacity="1" stop-color="rgb(12.860107%, 12.860107%, 12.860107%)" offset="0.289062"/><stop stop-opacity="1" stop-color="rgb(13.212585%, 13.212585%, 13.212585%)" offset="0.296875"/><stop stop-opacity="1" stop-color="rgb(13.563538%, 13.563538%, 13.563538%)" offset="0.304688"/><stop stop-opacity="1" stop-color="rgb(13.916016%, 13.916016%, 13.916016%)" offset="0.3125"/><stop stop-opacity="1" stop-color="rgb(14.268494%, 14.268494%, 14.268494%)" offset="0.320312"/><stop stop-opacity="1" stop-color="rgb(14.620972%, 14.620972%, 14.620972%)" offset="0.328125"/><stop stop-opacity="1" stop-color="rgb(14.97345%, 14.97345%, 14.97345%)" offset="0.335938"/><stop stop-opacity="1" stop-color="rgb(15.325928%, 15.325928%, 15.325928%)" offset="0.34375"/><stop stop-opacity="1" stop-color="rgb(15.678406%, 15.678406%, 15.678406%)" offset="0.351562"/><stop stop-opacity="1" stop-color="rgb(16.030884%, 16.030884%, 16.030884%)" offset="0.359375"/><stop stop-opacity="1" stop-color="rgb(16.383362%, 16.383362%, 16.383362%)" offset="0.367188"/><stop stop-opacity="1" stop-color="rgb(16.73584%, 16.73584%, 16.73584%)" offset="0.375"/><stop stop-opacity="1" stop-color="rgb(17.088318%, 17.088318%, 17.088318%)" offset="0.382812"/><stop stop-opacity="1" stop-color="rgb(17.43927%, 17.43927%, 17.43927%)" offset="0.390625"/><stop stop-opacity="1" stop-color="rgb(17.791748%, 17.791748%, 17.791748%)" offset="0.398438"/><stop stop-opacity="1" stop-color="rgb(18.144226%, 18.144226%, 18.144226%)" offset="0.40625"/><stop stop-opacity="1" stop-color="rgb(18.496704%, 18.496704%, 18.496704%)" offset="0.414062"/><stop stop-opacity="1" stop-color="rgb(18.849182%, 18.849182%, 18.849182%)" offset="0.421875"/><stop stop-opacity="1" stop-color="rgb(19.20166%, 19.20166%, 19.20166%)" offset="0.429688"/><stop stop-opacity="1" stop-color="rgb(19.554138%, 19.554138%, 19.554138%)" offset="0.4375"/><stop stop-opacity="1" stop-color="rgb(19.906616%, 19.906616%, 19.906616%)" offset="0.445312"/><stop stop-opacity="1" stop-color="rgb(20.259094%, 20.259094%, 20.259094%)" offset="0.453125"/><stop stop-opacity="1" stop-color="rgb(20.611572%, 20.611572%, 20.611572%)" offset="0.460938"/><stop stop-opacity="1" stop-color="rgb(20.96405%, 20.96405%, 20.96405%)" offset="0.46875"/><stop stop-opacity="1" stop-color="rgb(21.315002%, 21.315002%, 21.315002%)" offset="0.476562"/><stop stop-opacity="1" stop-color="rgb(21.66748%, 21.66748%, 21.66748%)" offset="0.484375"/><stop stop-opacity="1" stop-color="rgb(22.019958%, 22.019958%, 22.019958%)" offset="0.492188"/><stop stop-opacity="1" stop-color="rgb(22.372437%, 22.372437%, 22.372437%)" offset="0.5"/><stop stop-opacity="1" stop-color="rgb(22.724915%, 22.724915%, 22.724915%)" offset="0.507812"/><stop stop-opacity="1" stop-color="rgb(23.077393%, 23.077393%, 23.077393%)" offset="0.515625"/><stop stop-opacity="1" stop-color="rgb(23.429871%, 23.429871%, 23.429871%)" offset="0.523438"/><stop stop-opacity="1" stop-color="rgb(23.782349%, 23.782349%, 23.782349%)" offset="0.53125"/><stop stop-opacity="1" stop-color="rgb(24.134827%, 24.134827%, 24.134827%)" offset="0.539062"/><stop stop-opacity="1" stop-color="rgb(24.487305%, 24.487305%, 24.487305%)" offset="0.546875"/><stop stop-opacity="1" stop-color="rgb(24.839783%, 24.839783%, 24.839783%)" offset="0.554688"/><stop stop-opacity="1" stop-color="rgb(25.190735%, 25.190735%, 25.190735%)" offset="0.5625"/><stop stop-opacity="1" stop-color="rgb(25.543213%, 25.543213%, 25.543213%)" offset="0.570312"/><stop stop-opacity="1" stop-color="rgb(25.895691%, 25.895691%, 25.895691%)" offset="0.578125"/><stop stop-opacity="1" stop-color="rgb(26.248169%, 26.248169%, 26.248169%)" offset="0.585938"/><stop stop-opacity="1" stop-color="rgb(26.600647%, 26.600647%, 26.600647%)" offset="0.59375"/><stop stop-opacity="1" stop-color="rgb(26.953125%, 26.953125%, 26.953125%)" offset="0.601562"/><stop stop-opacity="1" stop-color="rgb(27.305603%, 27.305603%, 27.305603%)" offset="0.609375"/><stop stop-opacity="1" stop-color="rgb(27.658081%, 27.658081%, 27.658081%)" offset="0.617188"/><stop stop-opacity="1" stop-color="rgb(28.010559%, 28.010559%, 28.010559%)" offset="0.625"/><stop stop-opacity="1" stop-color="rgb(28.363037%, 28.363037%, 28.363037%)" offset="0.632812"/><stop stop-opacity="1" stop-color="rgb(28.715515%, 28.715515%, 28.715515%)" offset="0.640625"/><stop stop-opacity="1" stop-color="rgb(29.066467%, 29.066467%, 29.066467%)" offset="0.648438"/><stop stop-opacity="1" stop-color="rgb(29.418945%, 29.418945%, 29.418945%)" offset="0.65625"/><stop stop-opacity="1" stop-color="rgb(29.771423%, 29.771423%, 29.771423%)" offset="0.664062"/><stop stop-opacity="1" stop-color="rgb(30.123901%, 30.123901%, 30.123901%)" offset="0.671875"/><stop stop-opacity="1" stop-color="rgb(30.476379%, 30.476379%, 30.476379%)" offset="0.679688"/><stop stop-opacity="1" stop-color="rgb(30.828857%, 30.828857%, 30.828857%)" offset="0.6875"/><stop stop-opacity="1" stop-color="rgb(31.181335%, 31.181335%, 31.181335%)" offset="0.695312"/><stop stop-opacity="1" stop-color="rgb(31.533813%, 31.533813%, 31.533813%)" offset="0.703125"/><stop stop-opacity="1" stop-color="rgb(31.886292%, 31.886292%, 31.886292%)" offset="0.710938"/><stop stop-opacity="1" stop-color="rgb(32.23877%, 32.23877%, 32.23877%)" offset="0.71875"/><stop stop-opacity="1" stop-color="rgb(32.591248%, 32.591248%, 32.591248%)" offset="0.726562"/><stop stop-opacity="1" stop-color="rgb(32.9422%, 32.9422%, 32.9422%)" offset="0.734375"/><stop stop-opacity="1" stop-color="rgb(33.294678%, 33.294678%, 33.294678%)" offset="0.742188"/><stop stop-opacity="1" stop-color="rgb(33.647156%, 33.647156%, 33.647156%)" offset="0.75"/><stop stop-opacity="1" stop-color="rgb(33.999634%, 33.999634%, 33.999634%)" offset="0.757812"/><stop stop-opacity="1" stop-color="rgb(34.352112%, 34.352112%, 34.352112%)" offset="0.765625"/><stop stop-opacity="1" stop-color="rgb(34.70459%, 34.70459%, 34.70459%)" offset="0.773438"/><stop stop-opacity="1" stop-color="rgb(35.057068%, 35.057068%, 35.057068%)" offset="0.78125"/><stop stop-opacity="1" stop-color="rgb(35.409546%, 35.409546%, 35.409546%)" offset="0.789062"/><stop stop-opacity="1" stop-color="rgb(35.762024%, 35.762024%, 35.762024%)" offset="0.796875"/><stop stop-opacity="1" stop-color="rgb(36.114502%, 36.114502%, 36.114502%)" offset="0.804688"/><stop stop-opacity="1" stop-color="rgb(36.46698%, 36.46698%, 36.46698%)" offset="0.8125"/><stop stop-opacity="1" stop-color="rgb(36.817932%, 36.817932%, 36.817932%)" offset="0.820312"/><stop stop-opacity="1" stop-color="rgb(37.17041%, 37.17041%, 37.17041%)" offset="0.828125"/><stop stop-opacity="1" stop-color="rgb(37.522888%, 37.522888%, 37.522888%)" offset="0.835938"/><stop stop-opacity="1" stop-color="rgb(37.875366%, 37.875366%, 37.875366%)" offset="0.84375"/><stop stop-opacity="1" stop-color="rgb(38.227844%, 38.227844%, 38.227844%)" offset="0.851562"/><stop stop-opacity="1" stop-color="rgb(38.580322%, 38.580322%, 38.580322%)" offset="0.859375"/><stop stop-opacity="1" stop-color="rgb(38.9328%, 38.9328%, 38.9328%)" offset="0.867188"/><stop stop-opacity="1" stop-color="rgb(39.285278%, 39.285278%, 39.285278%)" offset="0.875"/><stop stop-opacity="1" stop-color="rgb(39.637756%, 39.637756%, 39.637756%)" offset="0.882812"/><stop stop-opacity="1" stop-color="rgb(39.990234%, 39.990234%, 39.990234%)" offset="0.890625"/><stop stop-opacity="1" stop-color="rgb(40.342712%, 40.342712%, 40.342712%)" offset="0.898438"/><stop stop-opacity="1" stop-color="rgb(40.693665%, 40.693665%, 40.693665%)" offset="0.90625"/><stop stop-opacity="1" stop-color="rgb(41.046143%, 41.046143%, 41.046143%)" offset="0.914062"/><stop stop-opacity="1" stop-color="rgb(41.398621%, 41.398621%, 41.398621%)" offset="0.921875"/><stop stop-opacity="1" stop-color="rgb(41.751099%, 41.751099%, 41.751099%)" offset="0.929688"/><stop stop-opacity="1" stop-color="rgb(42.103577%, 42.103577%, 42.103577%)" offset="0.9375"/><stop stop-opacity="1" stop-color="rgb(42.456055%, 42.456055%, 42.456055%)" offset="0.945312"/><stop stop-opacity="1" stop-color="rgb(42.808533%, 42.808533%, 42.808533%)" offset="0.953125"/><stop stop-opacity="1" stop-color="rgb(43.161011%, 43.161011%, 43.161011%)" offset="0.960938"/><stop stop-opacity="1" stop-color="rgb(43.513489%, 43.513489%, 43.513489%)" offset="0.96875"/><stop stop-opacity="1" stop-color="rgb(43.865967%, 43.865967%, 43.865967%)" offset="0.976562"/><stop stop-opacity="1" stop-color="rgb(44.218445%, 44.218445%, 44.218445%)" offset="0.984375"/><stop stop-opacity="1" stop-color="rgb(44.569397%, 44.569397%, 44.569397%)" offset="0.992188"/><stop stop-opacity="1" stop-color="rgb(44.921875%, 44.921875%, 44.921875%)" offset="1"/></linearGradient><clipPath id="7da1046c4c"><rect x="0" width="247" y="0" height="242"/></clipPath><clipPath id="4469a7f720"><path d="M 203 47 L 376.609375 47 L 376.609375 204.828125 L 203 204.828125 Z M 203 47 " clip-rule="nonzero"/></clipPath><clipPath id="c9801c9aa3"><path d="M 342 151 L 376.609375 151 L 376.609375 186 L 342 186 Z M 342 151 " clip-rule="nonzero"/></clipPath><clipPath id="e946505600"><path d="M 133.527344 106.1875 L 461.289062 106.1875 L 461.289062 280 L 133.527344 280 Z M 133.527344 106.1875 " clip-rule="nonzero"/></clipPath><clipPath id="c3d6b539ba"><path d="M 0.527344 0.1875 L 328.289062 0.1875 L 328.289062 174 L 0.527344 174 Z M 0.527344 0.1875 " clip-rule="nonzero"/></clipPath><clipPath id="e5ce8118f2"><path d="M 40.1875 0.1875 L 287.878906 0.1875 L 287.878906 174 L 40.1875 174 Z M 40.1875 0.1875 " clip-rule="nonzero"/></clipPath><linearGradient x1="-47.832001" gradientTransform="matrix(0.747769, 0, 0, 0.746497, 75.955598, 75.837102)" y1="34.5" x2="283.409999" gradientUnits="userSpaceOnUse" y2="34.5" id="ddc6c4940a"><stop stop-opacity="1" stop-color="rgb(88.62915%, 4.309082%, 54.899597%)" offset="0"/><stop stop-opacity="1" stop-color="rgb(88.62915%, 4.309082%, 54.899597%)" offset="0.25"/><stop stop-opacity="1" stop-color="rgb(88.62915%, 4.309082%, 54.899597%)" offset="0.28125"/><stop stop-opacity="1" stop-color="rgb(88.62915%, 4.309082%, 54.899597%)" offset="0.296875"/><stop stop-opacity="1" stop-color="rgb(88.62915%, 4.309082%, 54.899597%)" offset="0.304687"/><stop stop-opacity="1" stop-color="rgb(88.702393%, 4.521179%, 54.432678%)" offset="0.308594"/><stop stop-opacity="1" stop-color="rgb(88.775635%, 4.734802%, 53.967285%)" offset="0.3125"/><stop stop-opacity="1" stop-color="rgb(88.86261%, 4.986572%, 53.414917%)" offset="0.316406"/><stop stop-opacity="1" stop-color="rgb(88.949585%, 5.239868%, 52.862549%)" offset="0.320312"/><stop stop-opacity="1" stop-color="rgb(89.035034%, 5.491638%, 52.310181%)" offset="0.324219"/><stop stop-opacity="1" stop-color="rgb(89.122009%, 5.744934%, 51.757812%)" offset="0.328125"/><stop stop-opacity="1" stop-color="rgb(89.208984%, 5.996704%, 51.205444%)" offset="0.332031"/><stop stop-opacity="1" stop-color="rgb(89.295959%, 6.25%, 50.653076%)" offset="0.335938"/><stop stop-opacity="1" stop-color="rgb(89.382935%, 6.50177%, 50.100708%)" offset="0.339844"/><stop stop-opacity="1" stop-color="rgb(89.46991%, 6.755066%, 49.54834%)" offset="0.34375"/><stop stop-opacity="1" stop-color="rgb(89.555359%, 7.008362%, 48.995972%)" offset="0.347656"/><stop stop-opacity="1" stop-color="rgb(89.642334%, 7.261658%, 48.443604%)" offset="0.351562"/><stop stop-opacity="1" stop-color="rgb(89.729309%, 7.513428%, 47.891235%)" offset="0.355469"/><stop stop-opacity="1" stop-color="rgb(89.816284%, 7.766724%, 47.338867%)" offset="0.359375"/><stop stop-opacity="1" stop-color="rgb(89.903259%, 8.018494%, 46.784973%)" offset="0.363281"/><stop stop-opacity="1" stop-color="rgb(89.990234%, 8.27179%, 46.232605%)" offset="0.367187"/><stop stop-opacity="1" stop-color="rgb(90.075684%, 8.52356%, 45.680237%)" offset="0.371094"/><stop stop-opacity="1" stop-color="rgb(90.162659%, 8.776855%, 45.127869%)" offset="0.375"/><stop stop-opacity="1" stop-color="rgb(90.249634%, 9.028625%, 44.5755%)" offset="0.378906"/><stop stop-opacity="1" stop-color="rgb(90.336609%, 9.281921%, 44.023132%)" offset="0.382812"/><stop stop-opacity="1" stop-color="rgb(90.423584%, 9.533691%, 43.470764%)" offset="0.386719"/><stop stop-opacity="1" stop-color="rgb(90.510559%, 9.786987%, 42.918396%)" offset="0.390625"/><stop stop-opacity="1" stop-color="rgb(90.597534%, 10.038757%, 42.366028%)" offset="0.394531"/><stop stop-opacity="1" stop-color="rgb(90.684509%, 10.292053%, 41.81366%)" offset="0.398437"/><stop stop-opacity="1" stop-color="rgb(90.769958%, 10.543823%, 41.261292%)" offset="0.402344"/><stop stop-opacity="1" stop-color="rgb(90.856934%, 10.797119%, 40.708923%)" offset="0.40625"/><stop stop-opacity="1" stop-color="rgb(90.943909%, 11.048889%, 40.156555%)" offset="0.410156"/><stop stop-opacity="1" stop-color="rgb(91.030884%, 11.302185%, 39.604187%)" offset="0.414062"/><stop stop-opacity="1" stop-color="rgb(91.117859%, 11.553955%, 39.051819%)" offset="0.417969"/><stop stop-opacity="1" stop-color="rgb(91.204834%, 11.807251%, 38.499451%)" offset="0.421875"/><stop stop-opacity="1" stop-color="rgb(91.290283%, 12.059021%, 37.945557%)" offset="0.425781"/><stop stop-opacity="1" stop-color="rgb(91.377258%, 12.312317%, 37.393188%)" offset="0.429687"/><stop stop-opacity="1" stop-color="rgb(91.464233%, 12.564087%, 36.84082%)" offset="0.433594"/><stop stop-opacity="1" stop-color="rgb(91.551208%, 12.817383%, 36.288452%)" offset="0.4375"/><stop stop-opacity="1" stop-color="rgb(91.638184%, 13.069153%, 35.736084%)" offset="0.441406"/><stop stop-opacity="1" stop-color="rgb(91.725159%, 13.322449%, 35.183716%)" offset="0.445312"/><stop stop-opacity="1" stop-color="rgb(91.810608%, 13.574219%, 34.631348%)" offset="0.449219"/><stop stop-opacity="1" stop-color="rgb(91.897583%, 13.827515%, 34.078979%)" offset="0.453125"/><stop stop-opacity="1" stop-color="rgb(91.984558%, 14.080811%, 33.526611%)" offset="0.457031"/><stop stop-opacity="1" stop-color="rgb(92.071533%, 14.334106%, 32.974243%)" offset="0.460937"/><stop stop-opacity="1" stop-color="rgb(92.158508%, 14.585876%, 32.421875%)" offset="0.464844"/><stop stop-opacity="1" stop-color="rgb(92.245483%, 14.839172%, 31.869507%)" offset="0.46875"/><stop stop-opacity="1" stop-color="rgb(92.332458%, 15.090942%, 31.317139%)" offset="0.472656"/><stop stop-opacity="1" stop-color="rgb(92.419434%, 15.344238%, 30.764771%)" offset="0.476562"/><stop stop-opacity="1" stop-color="rgb(92.504883%, 15.596008%, 30.210876%)" offset="0.480469"/><stop stop-opacity="1" stop-color="rgb(92.591858%, 15.849304%, 29.658508%)" offset="0.484375"/><stop stop-opacity="1" stop-color="rgb(92.678833%, 16.101074%, 29.10614%)" offset="0.488281"/><stop stop-opacity="1" stop-color="rgb(92.765808%, 16.35437%, 28.553772%)" offset="0.492187"/><stop stop-opacity="1" stop-color="rgb(92.852783%, 16.60614%, 28.001404%)" offset="0.496094"/><stop stop-opacity="1" stop-color="rgb(92.939758%, 16.859436%, 27.449036%)" offset="0.5"/><stop stop-opacity="1" stop-color="rgb(93.025208%, 17.111206%, 26.896667%)" offset="0.503906"/><stop stop-opacity="1" stop-color="rgb(93.112183%, 17.364502%, 26.344299%)" offset="0.507812"/><stop stop-opacity="1" stop-color="rgb(93.199158%, 17.616272%, 25.791931%)" offset="0.511719"/><stop stop-opacity="1" stop-color="rgb(93.286133%, 17.869568%, 25.239563%)" offset="0.515625"/><stop stop-opacity="1" stop-color="rgb(93.373108%, 18.121338%, 24.687195%)" offset="0.519531"/><stop stop-opacity="1" stop-color="rgb(93.460083%, 18.374634%, 24.134827%)" offset="0.523438"/><stop stop-opacity="1" stop-color="rgb(93.545532%, 18.626404%, 23.582458%)" offset="0.527344"/><stop stop-opacity="1" stop-color="rgb(93.632507%, 18.8797%, 23.03009%)" offset="0.53125"/><stop stop-opacity="1" stop-color="rgb(93.719482%, 19.13147%, 22.476196%)" offset="0.535156"/><stop stop-opacity="1" stop-color="rgb(93.806458%, 19.384766%, 21.923828%)" offset="0.539062"/><stop stop-opacity="1" stop-color="rgb(93.893433%, 19.636536%, 21.37146%)" offset="0.542969"/><stop stop-opacity="1" stop-color="rgb(93.980408%, 19.889832%, 20.819092%)" offset="0.546875"/><stop stop-opacity="1" stop-color="rgb(94.067383%, 20.141602%, 20.266724%)" offset="0.550781"/><stop stop-opacity="1" stop-color="rgb(94.154358%, 20.394897%, 19.714355%)" offset="0.554688"/><stop stop-opacity="1" stop-color="rgb(94.239807%, 20.646667%, 19.161987%)" offset="0.558594"/><stop stop-opacity="1" stop-color="rgb(94.326782%, 20.899963%, 18.609619%)" offset="0.5625"/><stop stop-opacity="1" stop-color="rgb(94.413757%, 21.153259%, 18.057251%)" offset="0.566406"/><stop stop-opacity="1" stop-color="rgb(94.500732%, 21.406555%, 17.504883%)" offset="0.570312"/><stop stop-opacity="1" stop-color="rgb(94.587708%, 21.658325%, 16.952515%)" offset="0.574219"/><stop stop-opacity="1" stop-color="rgb(94.674683%, 21.911621%, 16.400146%)" offset="0.578125"/><stop stop-opacity="1" stop-color="rgb(94.760132%, 22.163391%, 15.847778%)" offset="0.582031"/><stop stop-opacity="1" stop-color="rgb(94.847107%, 22.416687%, 15.29541%)" offset="0.585938"/><stop stop-opacity="1" stop-color="rgb(94.934082%, 22.668457%, 14.741516%)" offset="0.589844"/><stop stop-opacity="1" stop-color="rgb(95.021057%, 22.921753%, 14.189148%)" offset="0.59375"/><stop stop-opacity="1" stop-color="rgb(95.108032%, 23.173523%, 13.63678%)" offset="0.597656"/><stop stop-opacity="1" stop-color="rgb(95.195007%, 23.426819%, 13.084412%)" offset="0.601562"/><stop stop-opacity="1" stop-color="rgb(95.280457%, 23.678589%, 12.532043%)" offset="0.605469"/><stop stop-opacity="1" stop-color="rgb(95.367432%, 23.931885%, 11.979675%)" offset="0.609375"/><stop stop-opacity="1" stop-color="rgb(95.454407%, 24.183655%, 11.427307%)" offset="0.613281"/><stop stop-opacity="1" stop-color="rgb(95.541382%, 24.436951%, 10.874939%)" offset="0.617188"/><stop stop-opacity="1" stop-color="rgb(95.628357%, 24.688721%, 10.322571%)" offset="0.621094"/><stop stop-opacity="1" stop-color="rgb(95.715332%, 24.942017%, 9.770203%)" offset="0.625"/><stop stop-opacity="1" stop-color="rgb(95.802307%, 25.193787%, 9.217834%)" offset="0.628906"/><stop stop-opacity="1" stop-color="rgb(95.889282%, 25.447083%, 8.665466%)" offset="0.632812"/><stop stop-opacity="1" stop-color="rgb(95.974731%, 25.698853%, 8.113098%)" offset="0.636719"/><stop stop-opacity="1" stop-color="rgb(96.061707%, 25.952148%, 7.56073%)" offset="0.640625"/><stop stop-opacity="1" stop-color="rgb(96.148682%, 26.203918%, 7.008362%)" offset="0.644531"/><stop stop-opacity="1" stop-color="rgb(96.235657%, 26.457214%, 6.455994%)" offset="0.648437"/><stop stop-opacity="1" stop-color="rgb(96.322632%, 26.708984%, 5.9021%)" offset="0.652344"/><stop stop-opacity="1" stop-color="rgb(96.409607%, 26.96228%, 5.349731%)" offset="0.65625"/><stop stop-opacity="1" stop-color="rgb(96.495056%, 27.21405%, 4.797363%)" offset="0.660156"/><stop stop-opacity="1" stop-color="rgb(96.582031%, 27.467346%, 4.244995%)" offset="0.664062"/><stop stop-opacity="1" stop-color="rgb(96.669006%, 27.719116%, 3.692627%)" offset="0.667969"/><stop stop-opacity="1" stop-color="rgb(96.755981%, 27.972412%, 3.140259%)" offset="0.671875"/><stop stop-opacity="1" stop-color="rgb(96.842957%, 28.225708%, 2.587891%)" offset="0.675781"/><stop stop-opacity="1" stop-color="rgb(96.929932%, 28.479004%, 2.035522%)" offset="0.679687"/><stop stop-opacity="1" stop-color="rgb(97.015381%, 28.730774%, 1.483154%)" offset="0.683594"/><stop stop-opacity="1" stop-color="rgb(97.102356%, 28.98407%, 0.930786%)" offset="0.6875"/><stop stop-opacity="1" stop-color="rgb(97.175598%, 29.196167%, 0.465393%)" offset="0.691406"/><stop stop-opacity="1" stop-color="rgb(97.24884%, 29.40979%, 0%)" offset="0.695312"/><stop stop-opacity="1" stop-color="rgb(97.24884%, 29.40979%, 0%)" offset="0.703125"/><stop stop-opacity="1" stop-color="rgb(97.24884%, 29.40979%, 0%)" offset="0.71875"/><stop stop-opacity="1" stop-color="rgb(97.24884%, 29.40979%, 0%)" offset="0.75"/><stop stop-opacity="1" stop-color="rgb(97.24884%, 29.40979%, 0%)" offset="1"/></linearGradient><clipPath id="1ead8623e4"><rect x="0" width="329" y="0" height="174"/></clipPath><clipPath id="777ae7c1ee"><path d="M 0.527344 0.1875 L 328.289062 0.1875 L 328.289062 174 L 0.527344 174 Z M 0.527344 0.1875 " clip-rule="nonzero"/></clipPath><clipPath id="6b0d6516be"><rect x="0" width="329" y="0" height="174"/></clipPath><clipPath id="92470a0fd2"><rect x="0" width="329" y="0" height="174"/></clipPath><mask id="03e7f3baf3"><g filter="url(#5bb928a891)"><g transform="matrix(1, 0, 0, 1, 0.000000000000028422, 0)"><g clip-path="url(#92470a0fd2)"><g clip-path="url(#777ae7c1ee)"><g transform="matrix(1, 0, 0, 1, 0.000000000000028422, 0)"><g clip-path="url(#6b0d6516be)"><g fill="#000000" fill-opacity="1"><g transform="translate(116.142142, 114.680517)"><g><path d="M 21 0.453125 C 19.457031 0.453125 18.046875 0.113281 16.765625 -0.5625 C 15.492188 -1.25 14.484375 -2.195312 13.734375 -3.40625 C 12.992188 -4.625 12.625 -6.066406 12.625 -7.734375 L 12.625 -19.296875 C 12.625 -19.703125 12.519531 -20.066406 12.3125 -20.390625 C 12.113281 -20.722656 11.847656 -20.988281 11.515625 -21.1875 C 11.191406 -21.394531 10.828125 -21.5 10.421875 -21.5 C 10.015625 -21.5 9.644531 -21.394531 9.3125 -21.1875 C 8.988281 -20.988281 8.734375 -20.722656 8.546875 -20.390625 C 8.359375 -20.066406 8.265625 -19.703125 8.265625 -19.296875 L 8.265625 0 L 2.046875 0 L 2.046875 -18.84375 C 2.046875 -20.4375 2.40625 -21.835938 3.125 -23.046875 C 3.84375 -24.253906 4.835938 -25.210938 6.109375 -25.921875 C 7.390625 -26.628906 8.828125 -26.984375 10.421875 -26.984375 C 12.035156 -26.984375 13.472656 -26.628906 14.734375 -25.921875 C 16.003906 -25.210938 17.003906 -24.253906 17.734375 -23.046875 C 18.472656 -21.835938 18.84375 -20.4375 18.84375 -18.84375 L 18.84375 -7.28125 C 18.84375 -6.851562 18.941406 -6.472656 19.140625 -6.140625 C 19.347656 -5.804688 19.609375 -5.546875 19.921875 -5.359375 C 20.234375 -5.171875 20.582031 -5.078125 20.96875 -5.078125 C 21.363281 -5.078125 21.734375 -5.171875 22.078125 -5.359375 C 22.421875 -5.546875 22.691406 -5.804688 22.890625 -6.140625 C 23.097656 -6.472656 23.203125 -6.851562 23.203125 -7.28125 L 23.203125 -18.84375 C 23.203125 -20.4375 23.566406 -21.835938 24.296875 -23.046875 C 25.023438 -24.253906 26.023438 -25.210938 27.296875 -25.921875 C 28.578125 -26.628906 30.003906 -26.984375 31.578125 -26.984375 C 33.191406 -26.984375 34.625 -26.628906 35.875 -25.921875 C 37.125 -25.210938 38.113281 -24.253906 38.84375 -23.046875 C 39.582031 -21.835938 39.953125 -20.4375 39.953125 -18.84375 L 39.953125 0 L 33.734375 0 L 33.734375 -19.328125 C 33.734375 -19.734375 33.640625 -20.09375 33.453125 -20.40625 C 33.265625 -20.726562 33.003906 -20.988281 32.671875 -21.1875 C 32.347656 -21.394531 31.984375 -21.5 31.578125 -21.5 C 31.191406 -21.5 30.828125 -21.394531 30.484375 -21.1875 C 30.148438 -20.988281 29.878906 -20.726562 29.671875 -20.40625 C 29.472656 -20.09375 29.375 -19.734375 29.375 -19.328125 L 29.375 -7.734375 C 29.375 -6.066406 28.992188 -4.625 28.234375 -3.40625 C 27.484375 -2.195312 26.472656 -1.25 25.203125 -0.5625 C 23.941406 0.113281 22.539062 0.453125 21 0.453125 Z M 21 0.453125 "/></g></g></g><g fill="#000000" fill-opacity="1"><g transform="translate(158.143181, 114.680517)"><g><path d="M 2.46875 0 L 2.46875 -5.3125 L 13.796875 -5.3125 C 14.304688 -5.3125 14.757812 -5.4375 15.15625 -5.6875 C 15.5625 -5.9375 15.882812 -6.265625 16.125 -6.671875 C 16.363281 -7.078125 16.484375 -7.519531 16.484375 -8 C 16.484375 -8.5 16.363281 -8.953125 16.125 -9.359375 C 15.882812 -9.765625 15.5625 -10.09375 15.15625 -10.34375 C 14.757812 -10.601562 14.304688 -10.734375 13.796875 -10.734375 L 9.703125 -10.734375 C 8.160156 -10.734375 6.753906 -11.035156 5.484375 -11.640625 C 4.222656 -12.242188 3.21875 -13.132812 2.46875 -14.3125 C 1.726562 -15.488281 1.359375 -16.894531 1.359375 -18.53125 C 1.359375 -20.15625 1.710938 -21.5625 2.421875 -22.75 C 3.128906 -23.9375 4.085938 -24.863281 5.296875 -25.53125 C 6.515625 -26.195312 7.859375 -26.53125 9.328125 -26.53125 L 21.03125 -26.53125 L 21.03125 -21.234375 L 10.046875 -21.234375 C 9.585938 -21.234375 9.164062 -21.117188 8.78125 -20.890625 C 8.40625 -20.660156 8.117188 -20.351562 7.921875 -19.96875 C 7.722656 -19.59375 7.625 -19.175781 7.625 -18.71875 C 7.625 -18.269531 7.722656 -17.859375 7.921875 -17.484375 C 8.117188 -17.117188 8.40625 -16.820312 8.78125 -16.59375 C 9.164062 -16.375 9.585938 -16.265625 10.046875 -16.265625 L 14.328125 -16.265625 C 16.023438 -16.265625 17.5 -15.941406 18.75 -15.296875 C 20 -14.648438 20.96875 -13.75 21.65625 -12.59375 C 22.351562 -11.445312 22.703125 -10.101562 22.703125 -8.5625 C 22.703125 -6.75 22.34375 -5.203125 21.625 -3.921875 C 20.90625 -2.648438 19.9375 -1.675781 18.71875 -1 C 17.507812 -0.332031 16.171875 0 14.703125 0 Z M 2.46875 0 "/></g></g></g><g fill="#000000" fill-opacity="1"><g transform="translate(182.06255, 114.680517)"><g><path d="M 15.15625 0.5 C 13.039062 0.5 11.125 0.144531 9.40625 -0.5625 C 7.6875 -1.269531 6.207031 -2.253906 4.96875 -3.515625 C 3.726562 -4.785156 2.769531 -6.253906 2.09375 -7.921875 C 1.425781 -9.585938 1.09375 -11.382812 1.09375 -13.3125 C 1.09375 -15.226562 1.425781 -17.019531 2.09375 -18.6875 C 2.769531 -20.351562 3.71875 -21.8125 4.9375 -23.0625 C 6.164062 -24.3125 7.644531 -25.285156 9.375 -25.984375 C 11.113281 -26.679688 13.039062 -27.03125 15.15625 -27.03125 C 17.257812 -27.03125 19.175781 -26.679688 20.90625 -25.984375 C 22.632812 -25.285156 24.109375 -24.3125 25.328125 -23.0625 C 26.554688 -21.8125 27.507812 -20.34375 28.1875 -18.65625 C 28.875 -16.976562 29.21875 -15.195312 29.21875 -13.3125 C 29.21875 -11.382812 28.875 -9.585938 28.1875 -7.921875 C 27.507812 -6.253906 26.554688 -4.785156 25.328125 -3.515625 C 24.109375 -2.253906 22.632812 -1.269531 20.90625 -0.5625 C 19.175781 0.144531 17.257812 0.5 15.15625 0.5 Z M 15.15625 -4.921875 C 16.269531 -4.921875 17.300781 -5.128906 18.25 -5.546875 C 19.195312 -5.960938 20.007812 -6.550781 20.6875 -7.3125 C 21.375 -8.070312 21.90625 -8.960938 22.28125 -9.984375 C 22.664062 -11.015625 22.859375 -12.125 22.859375 -13.3125 C 22.859375 -14.5 22.664062 -15.597656 22.28125 -16.609375 C 21.90625 -17.617188 21.375 -18.5 20.6875 -19.25 C 20.007812 -20.007812 19.195312 -20.597656 18.25 -21.015625 C 17.300781 -21.429688 16.269531 -21.640625 15.15625 -21.640625 C 14.019531 -21.640625 12.984375 -21.429688 12.046875 -21.015625 C 11.117188 -20.597656 10.304688 -20.007812 9.609375 -19.25 C 8.910156 -18.5 8.378906 -17.609375 8.015625 -16.578125 C 7.648438 -15.554688 7.46875 -14.46875 7.46875 -13.3125 C 7.46875 -12.125 7.648438 -11.015625 8.015625 -9.984375 C 8.378906 -8.960938 8.910156 -8.070312 9.609375 -7.3125 C 10.304688 -6.550781 11.117188 -5.960938 12.046875 -5.546875 C 12.984375 -5.128906 14.019531 -4.921875 15.15625 -4.921875 Z M 15.15625 -4.921875 "/></g></g></g></g></g></g></g></g></g></mask><clipPath id="bc58fbb3fa"><path d="M 40.1875 0.1875 L 287.878906 0.1875 L 287.878906 174 L 40.1875 174 Z M 40.1875 0.1875 " clip-rule="nonzero"/></clipPath><clipPath id="6e3082b3f9"><rect x="0" width="329" y="0" height="174"/></clipPath><clipPath id="20b006e18a"><rect x="0" width="329" y="0" height="174"/></clipPath><clipPath id="d74e4a14fe"><rect x="0" width="595" y="0" height="280"/></clipPath></defs><g clip-path="url(#2d15daae0a)"><g transform="matrix(1, 0, 0, 1, 0.000000000000000056, 0)"><g clip-path="url(#d74e4a14fe)"><g clip-path="url(#ecd09a2de7)"></g><g clip-path="url(#8357e0f6e9)"><g clip-path="url(#765c319982)"><g transform="matrix(1, 0, 0, 1, 174, 19)"><g clip-path="url(#7da1046c4c)"><g clip-path="url(#11e80f47c8)"><g clip-path="url(#8a62aad2a3)"><path fill="url(#28a9d34c69)" d="M 0.394531 0.808594 L 0.394531 241.191406 L 246.101562 241.191406 L 246.101562 0.808594 Z M 0.394531 0.808594 " fill-rule="nonzero"/></g></g></g></g></g></g><g clip-path="url(#4469a7f720)"><path fill="#ec284c" d="M 219.957031 205.160156 C 217.84375 205.160156 215.648438 204.753906 213.617188 203.859375 C 205.324219 200.363281 201.503906 190.769531 205 182.558594 L 248.898438 79.234375 C 249.628906 77.609375 250.523438 76.066406 251.742188 74.765625 L 252.148438 74.277344 C 255.808594 70.128906 261.335938 68.179688 266.78125 69.074219 C 272.230469 69.96875 276.863281 73.542969 279.140625 78.585938 L 300.601562 127.359375 L 344.5 55.253906 C 347.101562 50.945312 351.574219 48.097656 356.613281 47.53125 C 361.652344 46.960938 366.613281 48.832031 370.109375 52.40625 L 371.164062 53.546875 C 374.011719 56.554688 375.636719 60.457031 375.71875 64.601562 L 376.53125 123.378906 C 376.691406 132.320312 369.457031 139.71875 360.515625 139.878906 C 351.574219 140.042969 344.175781 132.808594 344.011719 123.867188 L 343.929688 118.582031 L 312.226562 170.691406 C 309.054688 175.894531 303.285156 178.820312 297.269531 178.414062 C 291.253906 178.007812 285.886719 174.269531 283.449219 168.738281 L 264.425781 125.652344 L 234.835938 195.242188 C 232.234375 201.421875 226.21875 205.160156 219.957031 205.160156 Z M 219.957031 205.160156 " fill-opacity="1" fill-rule="nonzero"/></g><g clip-path="url(#c9801c9aa3)"><path fill="#ec284c" d="M 376.855469 168.089844 C 376.855469 168.648438 376.828125 169.207031 376.773438 169.761719 C 376.71875 170.320312 376.636719 170.871094 376.527344 171.421875 C 376.417969 171.96875 376.28125 172.511719 376.121094 173.046875 C 375.957031 173.582031 375.769531 174.105469 375.554688 174.621094 C 375.34375 175.140625 375.101562 175.644531 374.839844 176.136719 C 374.578125 176.628906 374.289062 177.109375 373.976562 177.574219 C 373.667969 178.039062 373.335938 178.488281 372.980469 178.921875 C 372.625 179.351562 372.25 179.765625 371.855469 180.160156 C 371.460938 180.558594 371.046875 180.933594 370.613281 181.285156 C 370.183594 181.640625 369.734375 181.972656 369.269531 182.285156 C 368.804688 182.59375 368.324219 182.882812 367.832031 183.144531 C 367.339844 183.410156 366.832031 183.648438 366.316406 183.863281 C 365.800781 184.074219 365.273438 184.265625 364.738281 184.425781 C 364.203125 184.589844 363.664062 184.722656 363.113281 184.832031 C 362.566406 184.941406 362.011719 185.023438 361.457031 185.078125 C 360.902344 185.132812 360.34375 185.160156 359.785156 185.160156 C 359.226562 185.160156 358.667969 185.132812 358.109375 185.078125 C 357.554688 185.023438 357 184.941406 356.453125 184.832031 C 355.90625 184.722656 355.363281 184.589844 354.828125 184.425781 C 354.292969 184.265625 353.765625 184.074219 353.25 183.863281 C 352.734375 183.648438 352.230469 183.410156 351.734375 183.144531 C 351.242188 182.882812 350.765625 182.59375 350.300781 182.285156 C 349.835938 181.972656 349.386719 181.640625 348.953125 181.285156 C 348.519531 180.933594 348.109375 180.558594 347.710938 180.160156 C 347.316406 179.765625 346.941406 179.351562 346.585938 178.921875 C 346.230469 178.488281 345.898438 178.039062 345.589844 177.574219 C 345.277344 177.109375 344.992188 176.628906 344.726562 176.136719 C 344.464844 175.644531 344.226562 175.140625 344.011719 174.621094 C 343.796875 174.105469 343.609375 173.582031 343.445312 173.046875 C 343.285156 172.511719 343.148438 171.96875 343.039062 171.421875 C 342.929688 170.871094 342.847656 170.320312 342.792969 169.761719 C 342.738281 169.207031 342.710938 168.648438 342.710938 168.089844 C 342.710938 167.53125 342.738281 166.972656 342.792969 166.417969 C 342.847656 165.859375 342.929688 165.308594 343.039062 164.757812 C 343.148438 164.210938 343.285156 163.667969 343.445312 163.132812 C 343.609375 162.597656 343.796875 162.074219 344.011719 161.558594 C 344.226562 161.039062 344.464844 160.535156 344.726562 160.042969 C 344.992188 159.550781 345.277344 159.070312 345.589844 158.605469 C 345.898438 158.140625 346.230469 157.691406 346.585938 157.257812 C 346.941406 156.828125 347.316406 156.414062 347.710938 156.019531 C 348.109375 155.621094 348.519531 155.246094 348.953125 154.894531 C 349.386719 154.539062 349.835938 154.207031 350.300781 153.894531 C 350.765625 153.585938 351.242188 153.296875 351.734375 153.035156 C 352.230469 152.769531 352.734375 152.53125 353.25 152.316406 C 353.765625 152.105469 354.292969 151.914062 354.828125 151.753906 C 355.363281 151.589844 355.90625 151.457031 356.453125 151.347656 C 357 151.238281 357.554688 151.15625 358.109375 151.101562 C 358.667969 151.046875 359.226562 151.019531 359.785156 151.019531 C 360.34375 151.019531 360.902344 151.046875 361.457031 151.101562 C 362.011719 151.15625 362.566406 151.238281 363.113281 151.347656 C 363.664062 151.457031 364.203125 151.589844 364.738281 151.753906 C 365.273438 151.914062 365.800781 152.105469 366.316406 152.316406 C 366.832031 152.53125 367.339844 152.769531 367.832031 153.035156 C 368.324219 153.296875 368.804688 153.585938 369.269531 153.894531 C 369.734375 154.207031 370.183594 154.539062 370.613281 154.894531 C 371.046875 155.246094 371.460938 155.621094 371.855469 156.019531 C 372.25 156.414062 372.625 156.828125 372.980469 157.257812 C 373.335938 157.691406 373.667969 158.140625 373.976562 158.605469 C 374.289062 159.070312 374.578125 159.550781 374.839844 160.042969 C 375.101562 160.535156 375.34375 161.039062 375.554688 161.558594 C 375.769531 162.074219 375.957031 162.597656 376.121094 163.132812 C 376.28125 163.667969 376.417969 164.210938 376.527344 164.757812 C 376.636719 165.308594 376.71875 165.859375 376.773438 166.417969 C 376.828125 166.972656 376.855469 167.53125 376.855469 168.089844 Z M 376.855469 168.089844 " fill-opacity="1" fill-rule="nonzero"/></g><g clip-path="url(#e946505600)"><g transform="matrix(1, 0, 0, 1, 133, 106)"><g clip-path="url(#20b006e18a)"><g clip-path="url(#c3d6b539ba)"><g mask="url(#03e7f3baf3)"><g transform="matrix(1, 0, 0, 1, 0.000000000000028422, 0)"><g clip-path="url(#6e3082b3f9)"><g clip-path="url(#bc58fbb3fa)"><path fill="url(#ddc6c4940a)" d="M 40.1875 0.1875 L 40.1875 174 L 287.878906 174 L 287.878906 0.1875 Z M 40.1875 0.1875 " fill-rule="nonzero"/></g></g></g></g></g></g></g></g></g></g></g></svg>